<?xml version="1.0" encoding="utf-8"?>
<!-- Generator: Adobe Illustrator 19.0.0, SVG Export Plug-In . SVG Version: 6.00 Build 0)  -->
<svg version="1.1" id="Layer_1" xmlns="http://www.w3.org/2000/svg" xmlns:xlink="http://www.w3.org/1999/xlink" x="0px" y="0px"
	 viewBox="0 0 800 600" style="enable-background:new 0 0 800 600;" xml:space="preserve">
<style type="text/css">
	.st0{fill:#006EB6;}
</style>
<g id="XMLID_466_">
	<g id="XMLID_1422_">
		<path id="XMLID_1438_" class="st0" d="M480.2,218.3c-9.9,0-9.9-14.9,0-14.9C490.1,203.4,490.1,218.3,480.2,218.3z"/>
		<path id="XMLID_1437_" class="st0" d="M480.2,248c0,9.9-14.9,9.9-14.9,0C465.3,238.1,480.2,238.1,480.2,248z"/>
		<path id="XMLID_1436_" class="st0" d="M422.9,303.9c-9.9,0-9.9-14.9,0-14.9C432.8,289,432.8,303.9,422.9,303.9z"/>
		<path id="XMLID_1435_" class="st0" d="M473.5,285.6c2.8,8-4.9,15.7-12.9,12.9L437,322.2v18h21.7c19.1,0,34.6-15.5,34.6-34.6v-39.7
			L473.5,285.6z"/>
		<path id="XMLID_1434_" class="st0" d="M323.2,210.5c-2-7.5,4.9-14.3,12.3-12.3l26.6-26.6v-15.7h-18.7c-19.1,0-34.6,15.5-34.6,34.6
			v34.4L323.2,210.5z"/>
		<path id="XMLID_1430_" class="st0" d="M458.7,155.8h-10.1v63.4l-47.5,47.5c2.5,6.6-2.5,13.6-9.5,13.6c-5.6,0-10.1-4.5-10.1-10.1
			c0-6.9,6.8-11.8,13.4-9.5l45-45v-59.8h-27.4V194l-79.2,79.2c2.5,6.7-2.4,13.7-9.4,13.7c-5.6,0-10.1-4.5-10.1-10.1
			c0-6.9,6.7-11.8,13.3-9.6l76.8-76.8v-34.6h-33.1v19.3l-28.6,28.6c3.8,8.5-4.9,17.1-13.3,13.3L308.9,237v68.6
			c0,19.1,15.5,34.6,34.6,34.6h8.5v-67.7l46.7-46.7c-2.4-6.6,2.6-13.5,9.5-13.5c5.6,0,10.1,4.5,10.1,10.1c0,6.9-6.9,11.9-13.5,9.5
			l-44.1,44.1v64.1h31v-46.8l79.1-79.1c-2.4-6.6,2.6-13.5,9.5-13.5c5.6,0,10.1,4.5,10.1,10.1c0,6.9-6.8,11.9-13.5,9.5l-76.6,76.6
			v43.2h28.1v-21.6l26.2-26.2c-2.9-8,4.9-15.8,12.9-12.9l25.9-25.9v-63.3C493.3,171.3,477.8,155.8,458.7,155.8z M329.3,233
			l36.7-36.7c-2-6.5,3-13,9.7-13c5.6,0,10.1,4.5,10.1,10.1c0,7.2-7.3,12.1-14,9.3l-36.7,36.7c2,6.5-2.9,13-9.7,13
			c-5.6,0-10.1-4.5-10.1-10.1C315.4,235.2,322.7,230.2,329.3,233z M469,257.4l-36.4,36.4c1.8,6.5-3.1,12.8-9.7,12.8
			c-5.6,0-10.1-4.5-10.1-10.1c0-7.2,7.5-12.2,14.1-9.3l36.2-36.2c-2-6.5,2.9-13.1,9.6-13.1c5.6,0,10.1,4.5,10.1,10.1
			C482.9,255.1,475.6,260,469,257.4z"/>
		<path id="XMLID_1429_" class="st0" d="M333,215.4c-9.9,0-9.9-14.9,0-14.9C342.8,200.4,342.8,215.4,333,215.4z"/>
		<path id="XMLID_1428_" class="st0" d="M333,242.3c0,9.9-14.9,9.9-14.9,0C318,232.5,333,232.4,333,242.3z"/>
		<path id="XMLID_1427_" class="st0" d="M331.4,276.7c0,9.9-14.9,9.9-14.9,0C316.5,266.9,331.4,266.8,331.4,276.7z"/>
		<path id="XMLID_1426_" class="st0" d="M375.7,200.8c-9.9,0-9.9-14.9,0-14.9C385.6,185.9,385.6,200.8,375.7,200.8z"/>
		<path id="XMLID_1425_" class="st0" d="M415.7,222.4c0,9.9-14.9,9.9-14.9,0C400.7,212.5,415.7,212.5,415.7,222.4z"/>
		<path id="XMLID_1424_" class="st0" d="M391.6,277.7c-4.1,0-7.5-3.3-7.5-7.5c0-4.1,3.3-7.5,7.5-7.5
			C401.5,262.7,401.5,277.7,391.6,277.7z"/>
		<path id="XMLID_1423_" class="st0" d="M464,296.5c-9.9,0-9.9-14.9,0-14.9C473.9,281.5,473.9,296.5,464,296.5z"/>
	</g>
	<g id="XMLID_489_">
		<path id="XMLID_490_" class="st0" d="M303,409.1c0,0.2,0,0.3-0.1,0.4c-0.1,0.1-0.2,0.2-0.4,0.3c-0.2,0.1-0.5,0.1-0.9,0.2
			c-0.4,0-0.9,0.1-1.5,0.1c-0.5,0-1,0-1.3-0.1c-0.3,0-0.6-0.1-0.8-0.2c-0.2-0.1-0.4-0.2-0.5-0.4c-0.1-0.2-0.2-0.4-0.3-0.6l-3.7-9.4
			c-0.4-1.1-0.9-2-1.3-2.9c-0.5-0.9-1-1.7-1.6-2.3c-0.6-0.6-1.4-1.1-2.2-1.5c-0.9-0.4-1.9-0.5-3.1-0.5h-3.5v16.9
			c0,0.2,0,0.3-0.1,0.4c-0.1,0.1-0.2,0.2-0.4,0.3c-0.2,0.1-0.5,0.1-0.8,0.2c-0.3,0.1-0.8,0.1-1.3,0.1c-0.5,0-0.9,0-1.3-0.1
			c-0.3-0.1-0.6-0.1-0.8-0.2c-0.2-0.1-0.3-0.2-0.4-0.3c-0.1-0.1-0.1-0.3-0.1-0.4v-36.8c0-0.8,0.2-1.4,0.6-1.7
			c0.4-0.3,0.9-0.5,1.3-0.5h8.4c1,0,1.8,0,2.5,0.1c0.7,0.1,1.3,0.1,1.8,0.2c1.5,0.3,2.9,0.7,4.1,1.3c1.2,0.6,2.2,1.3,3,2.2
			c0.8,0.9,1.4,1.9,1.8,3c0.4,1.1,0.6,2.4,0.6,3.8c0,1.3-0.2,2.5-0.5,3.6c-0.4,1.1-0.9,2-1.5,2.8c-0.7,0.8-1.5,1.5-2.4,2.1
			c-0.9,0.6-2,1.1-3.2,1.5c0.7,0.3,1.2,0.7,1.8,1.1c0.5,0.4,1,1,1.5,1.6c0.5,0.6,0.9,1.3,1.3,2.1c0.4,0.8,0.8,1.7,1.2,2.7l3.6,8.7
			c0.3,0.7,0.5,1.3,0.6,1.5C303,408.7,303,408.9,303,409.1z M295.1,381.2c0-1.6-0.3-2.9-1-3.9c-0.7-1.1-1.9-1.8-3.5-2.3
			c-0.5-0.1-1.1-0.2-1.7-0.3c-0.6-0.1-1.5-0.1-2.5-0.1h-4.5v13.4h5.2c1.4,0,2.6-0.2,3.6-0.5c1-0.3,1.9-0.8,2.5-1.4
			c0.7-0.6,1.2-1.3,1.5-2.1C294.9,383,295.1,382.1,295.1,381.2z"/>
		<path id="XMLID_509_" class="st0" d="M334,407.7c0,0.4,0,0.7-0.1,1s-0.1,0.5-0.2,0.7c-0.1,0.2-0.2,0.3-0.4,0.4
			c-0.1,0.1-0.3,0.1-0.4,0.1h-19.1c-0.5,0-0.9-0.2-1.3-0.5c-0.4-0.3-0.6-0.9-0.6-1.7v-35.4c0-0.8,0.2-1.4,0.6-1.7
			c0.4-0.3,0.9-0.5,1.3-0.5h18.8c0.2,0,0.3,0,0.4,0.1c0.1,0.1,0.2,0.2,0.3,0.4c0.1,0.2,0.1,0.4,0.2,0.7c0.1,0.3,0.1,0.6,0.1,1
			c0,0.4,0,0.7-0.1,1c-0.1,0.3-0.1,0.5-0.2,0.7c-0.1,0.2-0.2,0.3-0.3,0.4c-0.1,0.1-0.3,0.1-0.4,0.1h-15.5V387h13.3
			c0.2,0,0.3,0,0.4,0.1c0.1,0.1,0.2,0.2,0.3,0.4s0.2,0.4,0.2,0.7c0,0.3,0.1,0.6,0.1,1c0,0.4,0,0.7-0.1,1c0,0.3-0.1,0.5-0.2,0.6
			c-0.1,0.2-0.2,0.3-0.3,0.4c-0.1,0.1-0.3,0.1-0.4,0.1h-13.3v14.2H333c0.2,0,0.3,0,0.4,0.1c0.1,0.1,0.3,0.2,0.4,0.4
			c0.1,0.2,0.2,0.4,0.2,0.7S334,407.3,334,407.7z"/>
		<path id="XMLID_511_" class="st0" d="M372.9,408c0.2,0.5,0.2,0.8,0.3,1.1c0,0.3-0.1,0.5-0.2,0.6c-0.2,0.1-0.4,0.2-0.8,0.3
			c-0.4,0-0.9,0.1-1.5,0.1s-1.1,0-1.5,0c-0.4,0-0.7-0.1-0.9-0.2c-0.2-0.1-0.3-0.2-0.4-0.3c-0.1-0.1-0.2-0.3-0.3-0.5l-3.4-9.7h-16.5
			l-3.3,9.5c-0.1,0.2-0.1,0.3-0.2,0.5c-0.1,0.1-0.3,0.2-0.4,0.3c-0.2,0.1-0.5,0.2-0.8,0.2c-0.4,0-0.8,0.1-1.4,0.1
			c-0.6,0-1.1,0-1.5-0.1c-0.4-0.1-0.6-0.1-0.8-0.3c-0.2-0.1-0.2-0.4-0.2-0.6c0-0.3,0.1-0.6,0.3-1.1l13.3-36.9
			c0.1-0.2,0.2-0.4,0.3-0.6c0.1-0.1,0.3-0.3,0.6-0.3c0.3-0.1,0.6-0.1,1-0.2c0.4,0,0.9,0,1.5,0c0.7,0,1.2,0,1.6,0
			c0.4,0,0.8,0.1,1,0.2c0.3,0.1,0.5,0.2,0.6,0.4c0.1,0.2,0.3,0.3,0.3,0.6L372.9,408z M355.9,375.4L355.9,375.4l-6.9,19.8h13.8
			L355.9,375.4z"/>
		<path id="XMLID_514_" class="st0" d="M406.9,404.2c0,0.3,0,0.6,0,0.9c0,0.2-0.1,0.5-0.1,0.6c-0.1,0.2-0.1,0.3-0.2,0.5
			c-0.1,0.1-0.2,0.3-0.4,0.5c-0.2,0.2-0.6,0.5-1.3,0.9c-0.7,0.4-1.5,0.8-2.4,1.2s-2.1,0.7-3.3,1s-2.6,0.4-4.1,0.4
			c-2.6,0-4.9-0.4-7-1.3c-2.1-0.9-3.8-2.1-5.3-3.8c-1.5-1.7-2.6-3.7-3.4-6.2c-0.8-2.5-1.2-5.3-1.2-8.5c0-3.3,0.4-6.2,1.3-8.8
			c0.8-2.6,2-4.8,3.6-6.6c1.5-1.8,3.4-3.2,5.5-4.1c2.1-0.9,4.5-1.4,7.1-1.4c1.1,0,2.3,0.1,3.3,0.3c1.1,0.2,2.1,0.5,3,0.8
			c0.9,0.3,1.7,0.7,2.5,1.1c0.7,0.4,1.2,0.8,1.5,1.1c0.3,0.3,0.5,0.5,0.5,0.6c0.1,0.1,0.1,0.3,0.2,0.5c0.1,0.2,0.1,0.4,0.1,0.7
			c0,0.3,0,0.6,0,1c0,0.4,0,0.8-0.1,1c0,0.3-0.1,0.5-0.2,0.7c-0.1,0.2-0.2,0.3-0.3,0.4c-0.1,0.1-0.3,0.1-0.4,0.1
			c-0.3,0-0.7-0.2-1.2-0.6c-0.5-0.4-1.2-0.8-2-1.3c-0.8-0.5-1.8-0.9-3-1.3c-1.2-0.4-2.6-0.6-4.2-0.6c-1.8,0-3.4,0.4-4.8,1.1
			c-1.4,0.7-2.7,1.7-3.7,3.1c-1,1.4-1.8,3-2.4,5c-0.6,2-0.8,4.2-0.8,6.8c0,2.5,0.3,4.7,0.8,6.7s1.3,3.6,2.3,4.8
			c1,1.3,2.3,2.3,3.7,2.9c1.5,0.7,3.2,1,5,1c1.6,0,3-0.2,4.2-0.6c1.2-0.4,2.2-0.8,3-1.3c0.8-0.5,1.5-0.9,2.1-1.3
			c0.5-0.4,1-0.6,1.3-0.6c0.1,0,0.3,0,0.4,0.1c0.1,0.1,0.2,0.2,0.2,0.4c0.1,0.2,0.1,0.4,0.1,0.7
			C406.9,403.4,406.9,403.8,406.9,404.2z"/>
		<path id="XMLID_625_" class="st0" d="M440.3,372.4c0,0.4,0,0.7-0.1,1c0,0.3-0.1,0.5-0.2,0.7c-0.1,0.2-0.2,0.3-0.3,0.4
			c-0.1,0.1-0.3,0.1-0.4,0.1h-11.2v34.4c0,0.2,0,0.3-0.1,0.4c-0.1,0.1-0.2,0.2-0.4,0.3c-0.2,0.1-0.5,0.1-0.8,0.2
			c-0.3,0.1-0.8,0.1-1.3,0.1c-0.5,0-0.9,0-1.3-0.1c-0.3-0.1-0.6-0.1-0.8-0.2c-0.2-0.1-0.3-0.2-0.4-0.3c-0.1-0.1-0.1-0.3-0.1-0.4
			v-34.4h-11.2c-0.2,0-0.3,0-0.4-0.1c-0.1-0.1-0.2-0.2-0.3-0.4c-0.1-0.2-0.1-0.4-0.2-0.7c-0.1-0.3-0.1-0.6-0.1-1c0-0.4,0-0.7,0.1-1
			c0.1-0.3,0.1-0.5,0.2-0.7c0.1-0.2,0.2-0.3,0.3-0.4c0.1-0.1,0.3-0.1,0.4-0.1h27.6c0.2,0,0.3,0,0.4,0.1c0.1,0.1,0.2,0.2,0.3,0.4
			c0.1,0.2,0.2,0.4,0.2,0.7C440.3,371.7,440.3,372,440.3,372.4z"/>
		<path id="XMLID_627_" class="st0" d="M452.6,409.1c0,0.2,0,0.3-0.1,0.4c-0.1,0.1-0.2,0.2-0.4,0.3c-0.2,0.1-0.5,0.1-0.8,0.2
			c-0.3,0.1-0.8,0.1-1.3,0.1c-0.5,0-0.9,0-1.3-0.1c-0.3-0.1-0.6-0.1-0.8-0.2c-0.2-0.1-0.3-0.2-0.4-0.3c-0.1-0.1-0.1-0.3-0.1-0.4
			v-38.1c0-0.2,0-0.3,0.1-0.4c0.1-0.1,0.2-0.2,0.5-0.3c0.2-0.1,0.5-0.1,0.8-0.2c0.3-0.1,0.7-0.1,1.2-0.1c0.5,0,0.9,0,1.3,0.1
			c0.3,0.1,0.6,0.1,0.8,0.2c0.2,0.1,0.3,0.2,0.4,0.3c0.1,0.1,0.1,0.3,0.1,0.4V409.1z"/>
		<path id="XMLID_629_" class="st0" d="M480.5,408.9c-0.1,0.2-0.2,0.4-0.3,0.6c-0.1,0.1-0.3,0.3-0.6,0.3c-0.3,0.1-0.6,0.1-1,0.2
			c-0.4,0-0.9,0-1.5,0c-0.4,0-0.8,0-1.2,0c-0.3,0-0.6,0-0.9-0.1c-0.2,0-0.5-0.1-0.6-0.1s-0.3-0.1-0.4-0.2c-0.1-0.1-0.2-0.2-0.3-0.3
			c-0.1-0.1-0.1-0.3-0.2-0.4l-13-36.9c-0.2-0.4-0.3-0.8-0.3-1.1c0-0.3,0.1-0.5,0.3-0.6c0.2-0.1,0.5-0.2,0.9-0.3c0.4,0,1-0.1,1.7-0.1
			c0.6,0,1,0,1.4,0c0.3,0,0.6,0.1,0.8,0.2c0.2,0.1,0.3,0.2,0.4,0.3c0.1,0.1,0.2,0.3,0.3,0.5l11.4,33.4h0l11.1-33.4
			c0.1-0.2,0.1-0.4,0.2-0.6c0.1-0.1,0.2-0.3,0.4-0.3c0.2-0.1,0.5-0.1,0.9-0.2c0.4,0,0.9,0,1.5,0c0.6,0,1.1,0,1.5,0.1
			c0.4,0.1,0.6,0.1,0.8,0.3c0.1,0.1,0.2,0.4,0.2,0.6s-0.1,0.6-0.3,1.1L480.5,408.9z"/>
		<path id="XMLID_673_" class="st0" d="M523.4,407.7c0,0.4,0,0.7-0.1,1s-0.1,0.5-0.2,0.7c-0.1,0.2-0.2,0.3-0.4,0.4
			c-0.1,0.1-0.3,0.1-0.4,0.1h-19.1c-0.5,0-0.9-0.2-1.3-0.5c-0.4-0.3-0.6-0.9-0.6-1.7v-35.4c0-0.8,0.2-1.4,0.6-1.7
			c0.4-0.3,0.9-0.5,1.3-0.5h18.8c0.2,0,0.3,0,0.4,0.1c0.1,0.1,0.2,0.2,0.3,0.4c0.1,0.2,0.1,0.4,0.2,0.7c0.1,0.3,0.1,0.6,0.1,1
			c0,0.4,0,0.7-0.1,1c-0.1,0.3-0.1,0.5-0.2,0.7c-0.1,0.2-0.2,0.3-0.3,0.4c-0.1,0.1-0.3,0.1-0.4,0.1h-15.5V387H520
			c0.2,0,0.3,0,0.4,0.1c0.1,0.1,0.2,0.2,0.3,0.4c0.1,0.2,0.2,0.4,0.2,0.7c0,0.3,0.1,0.6,0.1,1c0,0.4,0,0.7-0.1,1
			c0,0.3-0.1,0.5-0.2,0.6c-0.1,0.2-0.2,0.3-0.3,0.4c-0.1,0.1-0.3,0.1-0.4,0.1h-13.3v14.2h15.7c0.2,0,0.3,0,0.4,0.1
			c0.1,0.1,0.3,0.2,0.4,0.4c0.1,0.2,0.2,0.4,0.2,0.7S523.4,407.3,523.4,407.7z"/>
	</g>
	<g id="XMLID_465_">
		<path id="XMLID_469_" class="st0" d="M358.2,443.5c0,0.1,0,0.2-0.1,0.2c0,0.1-0.1,0.1-0.2,0.2c-0.1,0-0.2,0.1-0.4,0.1
			s-0.4,0-0.7,0c-0.2,0-0.5,0-0.6,0s-0.3-0.1-0.4-0.1c-0.1,0-0.2-0.1-0.2-0.2c0-0.1-0.1-0.1-0.1-0.2v-17.8h0l-7.2,17.9
			c0,0.1-0.1,0.1-0.1,0.2c-0.1,0.1-0.1,0.1-0.3,0.1s-0.2,0.1-0.4,0.1c-0.2,0-0.3,0-0.5,0c-0.2,0-0.4,0-0.6,0c-0.2,0-0.3-0.1-0.4-0.1
			s-0.2-0.1-0.2-0.1c-0.1-0.1-0.1-0.1-0.1-0.2l-6.9-17.9h0v17.8c0,0.1,0,0.2-0.1,0.2c0,0.1-0.1,0.1-0.2,0.2s-0.3,0.1-0.4,0.1
			s-0.4,0-0.7,0c-0.3,0-0.5,0-0.7,0s-0.3-0.1-0.4-0.1c-0.1,0-0.2-0.1-0.2-0.2c0-0.1-0.1-0.1-0.1-0.2v-18.8c0-0.4,0.1-0.8,0.4-1
			c0.2-0.2,0.5-0.3,0.8-0.3h1.7c0.3,0,0.6,0,0.9,0.1c0.3,0.1,0.5,0.2,0.7,0.3c0.2,0.1,0.4,0.3,0.5,0.5c0.1,0.2,0.2,0.5,0.3,0.7
			l5.9,14.8h0.1l6.1-14.8c0.1-0.3,0.2-0.6,0.4-0.8c0.1-0.2,0.3-0.4,0.5-0.5c0.2-0.1,0.4-0.2,0.6-0.3c0.2-0.1,0.4-0.1,0.7-0.1h1.8
			c0.2,0,0.3,0,0.5,0.1c0.1,0,0.3,0.1,0.4,0.2c0.1,0.1,0.2,0.2,0.2,0.4c0.1,0.2,0.1,0.3,0.1,0.6V443.5z"/>
		<path id="XMLID_471_" class="st0" d="M379.6,443c0.1,0.2,0.1,0.4,0.1,0.6c0,0.1,0,0.3-0.1,0.3s-0.2,0.1-0.4,0.1
			c-0.2,0-0.5,0-0.8,0c-0.3,0-0.6,0-0.8,0c-0.2,0-0.3,0-0.4-0.1c-0.1,0-0.2-0.1-0.2-0.2c0-0.1-0.1-0.1-0.1-0.2l-1.8-5h-8.5l-1.7,4.9
			c0,0.1-0.1,0.2-0.1,0.2c-0.1,0.1-0.1,0.1-0.2,0.2c-0.1,0-0.2,0.1-0.4,0.1c-0.2,0-0.4,0-0.7,0c-0.3,0-0.6,0-0.8,0
			c-0.2,0-0.3-0.1-0.4-0.2s-0.1-0.2-0.1-0.3c0-0.1,0.1-0.3,0.1-0.6l6.9-19c0-0.1,0.1-0.2,0.2-0.3s0.2-0.1,0.3-0.2s0.3-0.1,0.5-0.1
			c0.2,0,0.5,0,0.8,0c0.3,0,0.6,0,0.8,0c0.2,0,0.4,0,0.5,0.1c0.1,0,0.2,0.1,0.3,0.2s0.1,0.2,0.2,0.3L379.6,443z M370.8,426.2
			L370.8,426.2l-3.5,10.2h7.1L370.8,426.2z"/>
		<path id="XMLID_476_" class="st0" d="M397.2,441c0,0.2,0,0.3,0,0.4c0,0.1,0,0.2-0.1,0.3c0,0.1-0.1,0.2-0.1,0.3
			c0,0.1-0.1,0.2-0.2,0.3c-0.1,0.1-0.3,0.3-0.7,0.5c-0.3,0.2-0.8,0.4-1.3,0.6c-0.5,0.2-1.1,0.4-1.7,0.5c-0.6,0.1-1.4,0.2-2.1,0.2
			c-1.3,0-2.5-0.2-3.6-0.7c-1.1-0.4-2-1.1-2.7-2c-0.8-0.9-1.3-1.9-1.7-3.2c-0.4-1.3-0.6-2.7-0.6-4.4c0-1.7,0.2-3.2,0.7-4.5
			c0.4-1.3,1.1-2.5,1.8-3.4c0.8-0.9,1.7-1.6,2.8-2.1c1.1-0.5,2.3-0.7,3.7-0.7c0.6,0,1.2,0.1,1.7,0.2c0.6,0.1,1.1,0.3,1.6,0.4
			c0.5,0.2,0.9,0.4,1.3,0.6c0.4,0.2,0.6,0.4,0.8,0.5c0.1,0.1,0.2,0.3,0.3,0.3s0.1,0.2,0.1,0.3c0,0.1,0,0.2,0.1,0.4
			c0,0.1,0,0.3,0,0.5c0,0.2,0,0.4,0,0.5c0,0.1-0.1,0.3-0.1,0.4c0,0.1-0.1,0.2-0.2,0.2c-0.1,0-0.1,0.1-0.2,0.1
			c-0.1,0-0.4-0.1-0.6-0.3c-0.3-0.2-0.6-0.4-1-0.7c-0.4-0.2-0.9-0.5-1.5-0.7c-0.6-0.2-1.3-0.3-2.2-0.3c-0.9,0-1.7,0.2-2.5,0.5
			c-0.7,0.4-1.4,0.9-1.9,1.6c-0.5,0.7-0.9,1.6-1.2,2.6s-0.4,2.2-0.4,3.5c0,1.3,0.1,2.4,0.4,3.4c0.3,1,0.7,1.8,1.2,2.5
			c0.5,0.7,1.2,1.2,1.9,1.5c0.8,0.3,1.6,0.5,2.6,0.5c0.8,0,1.5-0.1,2.1-0.3c0.6-0.2,1.1-0.4,1.6-0.7c0.4-0.2,0.8-0.5,1.1-0.7
			c0.3-0.2,0.5-0.3,0.7-0.3c0.1,0,0.1,0,0.2,0c0.1,0,0.1,0.1,0.1,0.2c0,0.1,0.1,0.2,0.1,0.4C397.1,440.6,397.2,440.8,397.2,441z"/>
		<path id="XMLID_478_" class="st0" d="M416.2,443.5c0,0.1,0,0.2-0.1,0.2c0,0.1-0.1,0.1-0.2,0.2c-0.1,0-0.2,0.1-0.4,0.1
			s-0.4,0-0.6,0c-0.3,0-0.5,0-0.7,0c-0.2,0-0.3-0.1-0.4-0.1c-0.1,0-0.2-0.1-0.2-0.2c0-0.1-0.1-0.1-0.1-0.2v-9.1h-9.3v9.1
			c0,0.1,0,0.2-0.1,0.2c0,0.1-0.1,0.1-0.2,0.2c-0.1,0-0.2,0.1-0.4,0.1c-0.2,0-0.4,0-0.7,0c-0.3,0-0.5,0-0.6,0
			c-0.2,0-0.3-0.1-0.4-0.1c-0.1,0-0.2-0.1-0.2-0.2c0-0.1-0.1-0.1-0.1-0.2v-19.7c0-0.1,0-0.2,0.1-0.2c0-0.1,0.1-0.1,0.2-0.2
			c0.1,0,0.2-0.1,0.4-0.1c0.2,0,0.4,0,0.6,0c0.3,0,0.5,0,0.7,0c0.2,0,0.3,0.1,0.4,0.1c0.1,0,0.2,0.1,0.2,0.2c0,0.1,0.1,0.1,0.1,0.2
			v8.2h9.3v-8.2c0-0.1,0-0.2,0.1-0.2c0-0.1,0.1-0.1,0.2-0.2c0.1,0,0.2-0.1,0.4-0.1c0.2,0,0.4,0,0.7,0c0.3,0,0.5,0,0.6,0
			c0.2,0,0.3,0.1,0.4,0.1c0.1,0,0.2,0.1,0.2,0.2c0,0.1,0.1,0.1,0.1,0.2V443.5z"/>
		<path id="XMLID_483_" class="st0" d="M425,443.5c0,0.1,0,0.2-0.1,0.2c0,0.1-0.1,0.1-0.2,0.2c-0.1,0-0.2,0.1-0.4,0.1
			c-0.2,0-0.4,0-0.7,0c-0.3,0-0.5,0-0.6,0c-0.2,0-0.3-0.1-0.4-0.1c-0.1,0-0.2-0.1-0.2-0.2c0-0.1-0.1-0.1-0.1-0.2v-19.7
			c0-0.1,0-0.2,0.1-0.2c0-0.1,0.1-0.1,0.2-0.2c0.1,0,0.3-0.1,0.4-0.1c0.2,0,0.4,0,0.6,0c0.3,0,0.5,0,0.7,0c0.2,0,0.3,0.1,0.4,0.1
			c0.1,0,0.2,0.1,0.2,0.2c0,0.1,0.1,0.1,0.1,0.2V443.5z"/>
		<path id="XMLID_485_" class="st0" d="M446.6,442.8c0,0.2,0,0.4-0.1,0.5c-0.1,0.1-0.2,0.3-0.3,0.4c-0.1,0.1-0.2,0.2-0.4,0.2
			c-0.1,0-0.3,0.1-0.4,0.1h-0.9c-0.3,0-0.5,0-0.7-0.1c-0.2-0.1-0.4-0.2-0.6-0.3c-0.2-0.2-0.4-0.4-0.6-0.6c-0.2-0.3-0.4-0.6-0.6-1
			l-6.3-11.7c-0.3-0.6-0.7-1.2-1-1.9c-0.3-0.7-0.6-1.3-0.9-1.9h0c0,0.8,0,1.5,0,2.3c0,0.8,0,1.6,0,2.4v12.4c0,0.1,0,0.1-0.1,0.2
			c0,0.1-0.1,0.1-0.2,0.2c-0.1,0-0.2,0.1-0.4,0.1s-0.4,0-0.7,0c-0.3,0-0.5,0-0.7,0c-0.2,0-0.3-0.1-0.4-0.1c-0.1,0-0.2-0.1-0.2-0.2
			c0-0.1-0.1-0.1-0.1-0.2v-18.9c0-0.4,0.1-0.7,0.4-0.9c0.2-0.2,0.5-0.3,0.8-0.3h1.3c0.3,0,0.6,0,0.8,0.1c0.2,0.1,0.4,0.1,0.6,0.3
			s0.3,0.3,0.5,0.5s0.3,0.5,0.5,0.8l4.8,9c0.3,0.5,0.6,1.1,0.9,1.6c0.3,0.5,0.5,1,0.8,1.5c0.3,0.5,0.5,1,0.8,1.5
			c0.2,0.5,0.5,1,0.7,1.5h0c0-0.8,0-1.7,0-2.6s0-1.8,0-2.6v-11.1c0-0.1,0-0.1,0.1-0.2c0-0.1,0.1-0.1,0.2-0.2c0.1,0,0.2-0.1,0.4-0.1
			c0.2,0,0.4,0,0.7,0c0.2,0,0.5,0,0.6,0c0.2,0,0.3,0.1,0.4,0.1c0.1,0,0.2,0.1,0.2,0.2c0,0.1,0.1,0.1,0.1,0.2V442.8z"/>
		<path id="XMLID_487_" class="st0" d="M464.1,442.8c0,0.2,0,0.4,0,0.5c0,0.1-0.1,0.3-0.1,0.4c-0.1,0.1-0.1,0.2-0.2,0.2
			c-0.1,0-0.1,0.1-0.2,0.1h-9.8c-0.2,0-0.5-0.1-0.7-0.2c-0.2-0.2-0.3-0.5-0.3-0.9v-18.3c0-0.4,0.1-0.7,0.3-0.9
			c0.2-0.2,0.4-0.2,0.7-0.2h9.7c0.1,0,0.2,0,0.2,0.1c0.1,0,0.1,0.1,0.2,0.2s0.1,0.2,0.1,0.4c0,0.1,0,0.3,0,0.5c0,0.2,0,0.4,0,0.5
			c0,0.1-0.1,0.3-0.1,0.3s-0.1,0.2-0.2,0.2c-0.1,0-0.1,0.1-0.2,0.1h-8v6.4h6.9c0.1,0,0.2,0,0.2,0.1c0.1,0,0.1,0.1,0.2,0.2
			s0.1,0.2,0.1,0.3c0,0.1,0,0.3,0,0.5c0,0.2,0,0.4,0,0.5c0,0.1-0.1,0.2-0.1,0.3c0,0.1-0.1,0.1-0.2,0.2c-0.1,0-0.1,0.1-0.2,0.1h-6.9
			v7.3h8.1c0.1,0,0.2,0,0.2,0.1c0.1,0,0.1,0.1,0.2,0.2s0.1,0.2,0.1,0.3C464.1,442.4,464.1,442.6,464.1,442.8z"/>
	</g>
</g>
</svg>
