<?xml version="1.0" encoding="UTF-8" standalone="no"?>
<!-- Created with Inkscape (http://www.inkscape.org/) -->

<svg
   xmlns:dc="http://purl.org/dc/elements/1.1/"
   xmlns:cc="http://creativecommons.org/ns#"
   xmlns:rdf="http://www.w3.org/1999/02/22-rdf-syntax-ns#"
   xmlns:svg="http://www.w3.org/2000/svg"
   xmlns="http://www.w3.org/2000/svg"
   xmlns:sodipodi="http://sodipodi.sourceforge.net/DTD/sodipodi-0.dtd"
   xmlns:inkscape="http://www.inkscape.org/namespaces/inkscape"
   version="1.1"
   id="svg7542"
   xml:space="preserve"
   width="758.39996"
   height="720.00006"
   viewBox="0 0 758.39996 720.00006"
   sodipodi:docname="tactic.svg"
   inkscape:version="0.92.3 (2405546, 2018-03-11)"><metadata
     id="metadata7548"><rdf:RDF><cc:Work
         rdf:about=""><dc:format>image/svg+xml</dc:format><dc:type
           rdf:resource="http://purl.org/dc/dcmitype/StillImage" /><dc:title></dc:title></cc:Work></rdf:RDF></metadata><defs
     id="defs7546"><clipPath
       clipPathUnits="userSpaceOnUse"
       id="clipPath7558"><path
         d="M 0,1.2207e-4 H 960 V 540.00012 H 0 Z"
         id="path7556"
         inkscape:connector-curvature="0"
         style="clip-rule:evenodd" /></clipPath><clipPath
       clipPathUnits="userSpaceOnUse"
       id="clipPath7568"><path
         d="M 0,2.4414e-4 H 960 V 540.00024 H 0 Z"
         id="path7566"
         inkscape:connector-curvature="0"
         style="clip-rule:evenodd" /></clipPath><clipPath
       clipPathUnits="userSpaceOnUse"
       id="clipPath7578"><path
         d="M 0,1.8311e-4 H 960 V 540.00018 H 0 Z"
         id="path7576"
         inkscape:connector-curvature="0"
         style="clip-rule:evenodd" /></clipPath><clipPath
       clipPathUnits="userSpaceOnUse"
       id="clipPath7594"><path
         d="M 1.4305e-5,0 H 960.00001 V 540 H 1.4305e-5 Z"
         id="path7592"
         inkscape:connector-curvature="0"
         style="clip-rule:evenodd" /></clipPath><clipPath
       clipPathUnits="userSpaceOnUse"
       id="clipPath7612"><path
         d="M 1.4305e-5,0 H 960.00001 V 540 H 1.4305e-5 Z"
         id="path7610"
         inkscape:connector-curvature="0"
         style="clip-rule:evenodd" /></clipPath><clipPath
       clipPathUnits="userSpaceOnUse"
       id="clipPath7624"><path
         d="M 1.4305e-5,0 H 960.00001 V 540 H 1.4305e-5 Z"
         id="path7622"
         inkscape:connector-curvature="0"
         style="clip-rule:evenodd" /></clipPath><clipPath
       clipPathUnits="userSpaceOnUse"
       id="clipPath7636"><path
         d="M 1.4305e-5,0 H 960.00001 V 540 H 1.4305e-5 Z"
         id="path7634"
         inkscape:connector-curvature="0"
         style="clip-rule:evenodd" /></clipPath><clipPath
       clipPathUnits="userSpaceOnUse"
       id="clipPath7650"><path
         d="M 0,1.8311e-4 H 960 V 540.00018 H 0 Z"
         id="path7648"
         inkscape:connector-curvature="0"
         style="clip-rule:evenodd" /></clipPath><clipPath
       clipPathUnits="userSpaceOnUse"
       id="clipPath7660"><path
         d="M 1.4305e-5,0 H 960.00001 V 540 H 1.4305e-5 Z"
         id="path7658"
         inkscape:connector-curvature="0"
         style="clip-rule:evenodd" /></clipPath><clipPath
       clipPathUnits="userSpaceOnUse"
       id="clipPath7672"><path
         d="M 1.4305e-5,0 H 960.00001 V 540 H 1.4305e-5 Z"
         id="path7670"
         inkscape:connector-curvature="0"
         style="clip-rule:evenodd" /></clipPath><clipPath
       clipPathUnits="userSpaceOnUse"
       id="clipPath7684"><path
         d="M 1.4305e-5,0 H 960.00001 V 540 H 1.4305e-5 Z"
         id="path7682"
         inkscape:connector-curvature="0"
         style="clip-rule:evenodd" /></clipPath><clipPath
       clipPathUnits="userSpaceOnUse"
       id="clipPath7696"><path
         d="M 1.4305e-5,0 H 960.00001 V 540 H 1.4305e-5 Z"
         id="path7694"
         inkscape:connector-curvature="0"
         style="clip-rule:evenodd" /></clipPath><clipPath
       clipPathUnits="userSpaceOnUse"
       id="clipPath7708"><path
         d="M -9.541e-6,540 H 960 V 1.8311e-4 H -9.5410001e-6"
         id="path7706"
         inkscape:connector-curvature="0"
         style="clip-rule:evenodd" /></clipPath><clipPath
       clipPathUnits="userSpaceOnUse"
       id="clipPath7718"><path
         d="M -9.541e-6,540 H 960 V 1.8311e-4 H -9.5410001e-6"
         id="path7716"
         inkscape:connector-curvature="0"
         style="clip-rule:evenodd" /></clipPath><clipPath
       clipPathUnits="userSpaceOnUse"
       id="clipPath7728"><path
         d="M 1.4305e-5,0 H 960.00001 V 540 H 1.4305e-5 Z"
         id="path7726"
         inkscape:connector-curvature="0"
         style="clip-rule:evenodd" /></clipPath><clipPath
       clipPathUnits="userSpaceOnUse"
       id="clipPath7740"><path
         d="M 2.117e-6,540 H 960 V 1.2207e-4 H 2.117e-6"
         id="path7738"
         inkscape:connector-curvature="0"
         style="clip-rule:evenodd" /></clipPath><clipPath
       clipPathUnits="userSpaceOnUse"
       id="clipPath7750"><path
         d="M 2.117e-6,540 H 960 V 1.2207e-4 H 2.117e-6"
         id="path7748"
         inkscape:connector-curvature="0"
         style="clip-rule:evenodd" /></clipPath><clipPath
       clipPathUnits="userSpaceOnUse"
       id="clipPath7766"><path
         d="M 1.4305e-5,0 H 960.00001 V 540 H 1.4305e-5 Z"
         id="path7764"
         inkscape:connector-curvature="0"
         style="clip-rule:evenodd" /></clipPath><clipPath
       clipPathUnits="userSpaceOnUse"
       id="clipPath7778"><path
         d="M 1.4305e-5,0 H 960.00001 V 540 H 1.4305e-5 Z"
         id="path7776"
         inkscape:connector-curvature="0"
         style="clip-rule:evenodd" /></clipPath><clipPath
       clipPathUnits="userSpaceOnUse"
       id="clipPath7790"><path
         d="M 1.4305e-5,0 H 960.00001 V 540 H 1.4305e-5 Z"
         id="path7788"
         inkscape:connector-curvature="0"
         style="clip-rule:evenodd" /></clipPath><clipPath
       clipPathUnits="userSpaceOnUse"
       id="clipPath7808"><path
         d="M 1.4305e-5,0 H 960.00001 V 540 H 1.4305e-5 Z"
         id="path7806"
         inkscape:connector-curvature="0"
         style="clip-rule:evenodd" /></clipPath><clipPath
       clipPathUnits="userSpaceOnUse"
       id="clipPath7820"><path
         d="M 1.4305e-5,0 H 960.00001 V 540 H 1.4305e-5 Z"
         id="path7818"
         inkscape:connector-curvature="0"
         style="clip-rule:evenodd" /></clipPath><clipPath
       clipPathUnits="userSpaceOnUse"
       id="clipPath7832"><path
         d="M 1.4305e-5,0 H 960.00001 V 540 H 1.4305e-5 Z"
         id="path7830"
         inkscape:connector-curvature="0"
         style="clip-rule:evenodd" /></clipPath><clipPath
       clipPathUnits="userSpaceOnUse"
       id="clipPath7844"><path
         d="M 1.4305e-5,0 H 960.00001 V 540 H 1.4305e-5 Z"
         id="path7842"
         inkscape:connector-curvature="0"
         style="clip-rule:evenodd" /></clipPath><clipPath
       clipPathUnits="userSpaceOnUse"
       id="clipPath7856"><path
         d="M 1.4305e-5,0 H 960.00001 V 540 H 1.4305e-5 Z"
         id="path7854"
         inkscape:connector-curvature="0"
         style="clip-rule:evenodd" /></clipPath><clipPath
       clipPathUnits="userSpaceOnUse"
       id="clipPath7868"><path
         d="M 1.4305e-5,0 H 960.00001 V 540 H 1.4305e-5 Z"
         id="path7866"
         inkscape:connector-curvature="0"
         style="clip-rule:evenodd" /></clipPath><clipPath
       clipPathUnits="userSpaceOnUse"
       id="clipPath7880"><path
         d="M 1.4305e-5,0 H 960.00001 V 540 H 1.4305e-5 Z"
         id="path7878"
         inkscape:connector-curvature="0"
         style="clip-rule:evenodd" /></clipPath><clipPath
       clipPathUnits="userSpaceOnUse"
       id="clipPath7892"><path
         d="M 1.4305e-5,0 H 960.00001 V 540 H 1.4305e-5 Z"
         id="path7890"
         inkscape:connector-curvature="0"
         style="clip-rule:evenodd" /></clipPath><clipPath
       clipPathUnits="userSpaceOnUse"
       id="clipPath7904"><path
         d="M 1.4305e-5,0 H 960.00001 V 540 H 1.4305e-5 Z"
         id="path7902"
         inkscape:connector-curvature="0"
         style="clip-rule:evenodd" /></clipPath><clipPath
       clipPathUnits="userSpaceOnUse"
       id="clipPath7916"><path
         d="M 1.4305e-5,0 H 960.00001 V 540 H 1.4305e-5 Z"
         id="path7914"
         inkscape:connector-curvature="0"
         style="clip-rule:evenodd" /></clipPath><clipPath
       clipPathUnits="userSpaceOnUse"
       id="clipPath7928"><path
         d="M 1.4305e-5,0 H 960.00001 V 540 H 1.4305e-5 Z"
         id="path7926"
         inkscape:connector-curvature="0"
         style="clip-rule:evenodd" /></clipPath><clipPath
       clipPathUnits="userSpaceOnUse"
       id="clipPath7940"><path
         d="M 1.4305e-5,0 H 960.00001 V 540 H 1.4305e-5 Z"
         id="path7938"
         inkscape:connector-curvature="0"
         style="clip-rule:evenodd" /></clipPath><clipPath
       clipPathUnits="userSpaceOnUse"
       id="clipPath7952"><path
         d="M 1.4305e-5,0 H 960.00001 V 540 H 1.4305e-5 Z"
         id="path7950"
         inkscape:connector-curvature="0"
         style="clip-rule:evenodd" /></clipPath><clipPath
       clipPathUnits="userSpaceOnUse"
       id="clipPath7964"><path
         d="M 2.3189e-5,540 H 960 V 1.2207e-4 H 2.3189e-5"
         id="path7962"
         inkscape:connector-curvature="0"
         style="clip-rule:evenodd" /></clipPath><clipPath
       clipPathUnits="userSpaceOnUse"
       id="clipPath7974"><path
         d="M 2.3189e-5,540 H 960 V 1.2207e-4 H 2.3189e-5"
         id="path7972"
         inkscape:connector-curvature="0"
         style="clip-rule:evenodd" /></clipPath><clipPath
       clipPathUnits="userSpaceOnUse"
       id="clipPath7984"><path
         d="M 7.4e-6,540 H 960 V 1.2207e-4 H 7.4e-6"
         id="path7982"
         inkscape:connector-curvature="0"
         style="clip-rule:evenodd" /></clipPath><clipPath
       clipPathUnits="userSpaceOnUse"
       id="clipPath7994"><path
         d="M 7.4e-6,540 H 960 V 1.2207e-4 H 7.4e-6"
         id="path7992"
         inkscape:connector-curvature="0"
         style="clip-rule:evenodd" /></clipPath></defs><sodipodi:namedview
     pagecolor="#ffffff"
     bordercolor="#666666"
     borderopacity="1"
     objecttolerance="10"
     gridtolerance="10"
     guidetolerance="10"
     inkscape:pageopacity="0"
     inkscape:pageshadow="2"
     inkscape:window-width="1188"
     inkscape:window-height="1338"
     id="namedview7544"
     showgrid="false"
     inkscape:zoom="0.24921875"
     inkscape:cx="640"
     inkscape:cy="359.99976"
     inkscape:window-x="0"
     inkscape:window-y="30"
     inkscape:window-maximized="0"
     inkscape:current-layer="g7550" /><g
     id="g7550"
     inkscape:groupmode="layer"
     inkscape:label="tactic"
     transform="matrix(1.3333333,0,0,-1.3333333,0,720.0003)"><g
       id="g7562"><g
         id="g7564"
         clip-path="url(#clipPath7568)"><path
           d="M 0,405.84 H 568.2 V 541.56 H 0 Z"
           style="fill:#203864;fill-opacity:1;fill-rule:evenodd;stroke:none"
           id="path7570"
           inkscape:connector-curvature="0" /></g></g><g
       id="g7572"><g
         id="g7574"
         clip-path="url(#clipPath7578)"><path
           d="M 0,6.1035e-5 H 568.2 V 135.72006 H 0 Z"
           style="fill:#203864;fill-opacity:1;fill-rule:evenodd;stroke:none"
           id="path7580"
           inkscape:connector-curvature="0" /></g></g><path
       d="m 27.109,151.23 c -2.009,12.17 8.337,23.38 23.109,25.03 5.986,0.67 12.071,-0.33 17.284,-2.85 5.523,8.58 18.428,11.84 28.826,7.28 1.818,-0.79 3.486,-1.8 4.952,-2.99 4.3,7.1 14.78,9.99 23.4,6.45 2.39,-0.98 4.47,-2.4 6.09,-4.15 6.93,6.72 19.18,7.55 27.36,1.85 3.44,-2.39 5.76,-5.7 6.56,-9.34 11.36,-2.55 18.06,-12.23 14.96,-21.6 -0.26,-0.79 -0.58,-1.56 -0.97,-2.31 9.11,-9.77 6.88,-23.78 -4.98,-31.28 -3.7,-2.34 -8.06,-3.85 -12.67,-4.39 -0.1,-10.52 -10.53,-18.969 -23.31,-18.885 -4.26,0.028 -8.44,1.027 -12.06,2.887 C 121.35,85.147 106.28,78.486 92.012,82.055 86.034,83.55 80.868,86.712 77.396,91.003 62.789,83.744 43.83,87.649 35.05,99.723 c -0.111,0.152 -0.22,0.307 -0.326,0.457 -9.56,-0.919 -18.219,4.7 -19.341,12.55 -0.598,4.19 1.079,8.38 4.585,11.46 -8.277,4.01 -11.0573,12.82 -6.21,19.68 2.796,3.95 7.701,6.57 13.206,7.04 z"
       style="fill:#8497b0;fill-opacity:1;fill-rule:evenodd;stroke:none"
       id="path7582"
       inkscape:connector-curvature="0" /><path
       d="m 27.109,151.23 c -2.009,12.17 8.337,23.38 23.109,25.03 5.986,0.67 12.071,-0.33 17.284,-2.85 5.523,8.58 18.428,11.84 28.826,7.28 1.818,-0.79 3.486,-1.8 4.952,-2.99 4.3,7.1 14.78,9.99 23.4,6.45 2.39,-0.98 4.47,-2.4 6.09,-4.15 6.93,6.72 19.18,7.55 27.36,1.85 3.44,-2.39 5.76,-5.7 6.56,-9.34 11.36,-2.55 18.06,-12.23 14.96,-21.6 -0.26,-0.79 -0.58,-1.56 -0.97,-2.31 9.11,-9.77 6.88,-23.78 -4.98,-31.28 -3.7,-2.34 -8.06,-3.85 -12.67,-4.39 -0.1,-10.52 -10.53,-18.969 -23.31,-18.885 -4.26,0.028 -8.44,1.027 -12.06,2.887 C 121.35,85.147 106.28,78.486 92.012,82.055 86.034,83.55 80.868,86.712 77.396,91.003 62.789,83.744 43.83,87.649 35.05,99.723 c -0.111,0.152 -0.22,0.307 -0.326,0.457 -9.56,-0.919 -18.219,4.7 -19.341,12.55 -0.598,4.19 1.079,8.38 4.585,11.46 -8.277,4.01 -11.0573,12.82 -6.21,19.68 2.796,3.95 7.701,6.57 13.206,7.04 z"
       style="fill:none;stroke:#787878;stroke-width:0.95999998;stroke-linecap:butt;stroke-linejoin:miter;stroke-miterlimit:10;stroke-dasharray:none;stroke-opacity:1"
       id="path7584"
       inkscape:connector-curvature="0" /><path
       d="m 30.279,122.67 c -3.534,-0.23 -7.067,0.44 -10.125,1.92 m 19.059,-23.03 c -1.421,-0.46 -2.911,-0.77 -4.43,-0.92 m 42.603,-9.216 c -1.069,1.321 -1.963,2.732 -2.669,4.21 m 52.033,6.286 c -0.16,-1.56 -0.52,-3.113 -1.07,-4.617 m 22.26,33.157 c 8.01,-3.21 13.07,-9.92 13,-17.26 m 17.66,35.65 c -1.3,-2.5 -3.28,-4.71 -5.79,-6.47 m -8.1,30.49 c 0.22,-1.01 0.32,-2.03 0.31,-3.06 m -37.27,6.63 c 0.76,1.41 1.75,2.72 2.97,3.9 m -30.7,-5.76 c 0.31,1.17 0.79,2.3 1.44,3.36 m -33.979,-4.5 c 1.886,-0.91 3.631,-2.01 5.196,-3.26 M 28.017,147.8 c -0.412,1.12 -0.715,2.27 -0.907,3.43"
       style="fill:none;stroke:#787878;stroke-width:0.95999998;stroke-linecap:butt;stroke-linejoin:miter;stroke-miterlimit:10;stroke-dasharray:none;stroke-opacity:1"
       id="path7586"
       inkscape:connector-curvature="0" /><g
       id="g7588"><g
         id="g7590"
         clip-path="url(#clipPath7594)"><text
           transform="matrix(1,0,0,-1,47.136,128.02)"
           style="font-variant:normal;font-weight:normal;font-size:24px;font-family:Calibri;-inkscape-font-specification:Calibri;writing-mode:lr-tb;fill:#ffffff;fill-opacity:1;fill-rule:nonzero;stroke:none"
           id="text7598"><tspan
             x="0 11.712 30.888 43.487999 49.007999 60.360001 68.160004 80.807999"
             y="0"
             sodipodi:role="line"
             id="tspan7596">Emulator</tspan></text>
</g></g><path
       d="m 78.814,452.38 c -6.106,17.1 25.336,32.85 70.226,35.17 18.19,0.95 36.68,-0.46 52.52,-4 16.79,12.05 56.01,16.63 87.6,10.23 5.53,-1.12 10.6,-2.54 15.06,-4.21 13.07,9.99 44.91,14.05 71.11,9.07 7.26,-1.38 13.58,-3.38 18.5,-5.83 21.07,9.44 58.3,10.61 83.15,2.6 10.45,-3.36 17.49,-8.01 19.92,-13.13 34.52,-3.59 54.88,-17.18 45.48,-30.35 -0.79,-1.11 -1.78,-2.2 -2.96,-3.25 27.68,-13.73 20.91,-33.41 -15.14,-43.96 -11.22,-3.28 -24.48,-5.41 -38.48,-6.17 -0.31,-14.77 -32.03,-26.65 -70.83,-26.53 -12.97,0.04 -25.65,1.44 -36.65,4.05 -13.13,-16.56 -58.92,-25.92 -102.27,-20.9 -18.17,2.1 -33.87,6.54 -44.42,12.57 -44.39,-10.2 -102,-4.71 -128.68,12.26 -0.34,0.21 -0.67,0.43 -1,0.64 -29.047,-1.29 -55.361,6.6 -58.771,17.64 -1.817,5.88 3.281,11.77 13.935,16.1 -25.154,5.64 -33.603,18.02 -18.873,27.65 8.498,5.56 23.403,9.23 40.131,9.89 z"
       style="fill:#2e75b6;fill-opacity:1;fill-rule:evenodd;stroke:none"
       id="path7600"
       inkscape:connector-curvature="0" /><path
       d="m 78.814,452.38 c -6.106,17.1 25.336,32.85 70.226,35.17 18.19,0.95 36.68,-0.46 52.52,-4 16.79,12.05 56.01,16.63 87.6,10.23 5.53,-1.12 10.6,-2.54 15.06,-4.21 13.07,9.99 44.91,14.05 71.11,9.07 7.26,-1.38 13.58,-3.38 18.5,-5.83 21.07,9.44 58.3,10.61 83.15,2.6 10.45,-3.36 17.49,-8.01 19.92,-13.13 34.52,-3.59 54.88,-17.18 45.48,-30.35 -0.79,-1.11 -1.78,-2.2 -2.96,-3.25 27.68,-13.73 20.91,-33.41 -15.14,-43.96 -11.22,-3.28 -24.48,-5.41 -38.48,-6.17 -0.31,-14.77 -32.03,-26.65 -70.83,-26.53 -12.97,0.04 -25.65,1.44 -36.65,4.05 -13.13,-16.56 -58.92,-25.92 -102.27,-20.9 -18.17,2.1 -33.87,6.54 -44.42,12.57 -44.39,-10.2 -102,-4.71 -128.68,12.26 -0.34,0.21 -0.67,0.43 -1,0.64 -29.047,-1.29 -55.361,6.6 -58.771,17.64 -1.817,5.88 3.281,11.77 13.935,16.1 -25.154,5.64 -33.603,18.02 -18.873,27.65 8.498,5.56 23.403,9.23 40.131,9.89 z"
       style="fill:none;stroke:#787878;stroke-width:0.95999998;stroke-linecap:butt;stroke-linejoin:miter;stroke-miterlimit:10;stroke-dasharray:none;stroke-opacity:1"
       id="path7602"
       inkscape:connector-curvature="0" /><path
       d="m 88.447,412.24 c -10.739,-0.32 -21.476,0.62 -30.77,2.71 M 115.6,382.58 c -4.32,-0.65 -8.85,-1.09 -13.47,-1.29 M 231.6,368.33 c -3.25,1.86 -5.97,3.84 -8.11,5.92 m 158.12,8.84 c -0.48,-2.2 -1.57,-4.38 -3.24,-6.49 m 67.64,46.6 c 24.35,-4.52 39.72,-13.96 39.5,-24.26 m 53.66,50.1 c -3.94,-3.51 -9.96,-6.63 -17.59,-9.1 m -24.61,42.85 c 0.67,-1.42 0.98,-2.85 0.93,-4.29 m -113.24,9.3 c 2.29,1.99 5.32,3.83 9.01,5.48 m -93.28,-8.09 c 0.94,1.64 2.4,3.23 4.37,4.73 M 201.5,483.59 c 5.73,-1.28 11.03,-2.82 15.79,-4.59 M 81.572,447.56 c -1.251,1.58 -2.173,3.19 -2.756,4.82"
       style="fill:none;stroke:#787878;stroke-width:0.95999998;stroke-linecap:butt;stroke-linejoin:miter;stroke-miterlimit:10;stroke-dasharray:none;stroke-opacity:1"
       id="path7604"
       inkscape:connector-curvature="0" /><g
       id="g7606"><g
         id="g7608"
         clip-path="url(#clipPath7612)"><text
           transform="matrix(1,0,0,-1,111.34,437.52)"
           style="font-variant:normal;font-weight:normal;font-size:24px;font-family:Calibri;-inkscape-font-specification:Calibri;writing-mode:lr-tb;fill:#ffffff;fill-opacity:1;fill-rule:nonzero;stroke:none"
           id="text7616"><tspan
             x="0 15.888 23.879999 34.032001 46.632 58.655998 67.776001 75.816002 83.736 95.015999 103.056 108.576 121.224 133.82401 143.136 159.09599 172.992 183.192 191.23199 196.752 207.60001 213.12 221.16 226.67999 238.632 248.01601 263.952 275.112 285.672 297.62399 310.03201 318.07199 327.45599"
             y="0"
             sodipodi:role="line"
             id="tspan7614">Orchestrations Activities Events </tspan></text>
</g></g><g
       id="g7618"><g
         id="g7620"
         clip-path="url(#clipPath7624)"><text
           transform="matrix(1,0,0,-1,140.26,408.72)"
           style="font-variant:normal;font-weight:normal;font-size:24px;font-family:Calibri;-inkscape-font-specification:Calibri;writing-mode:lr-tb;fill:#ffffff;fill-opacity:1;fill-rule:nonzero;stroke:none"
           id="text7628"><tspan
             x="0 13.896 24.096001 31.896 44.543999 52.535999 61.919998 77.903999 88.056 95.975998 107.472 120.072 129.45599 140.952 151.15199 159.192 164.71201 177.36 189.96001"
             y="0"
             sodipodi:role="line"
             id="tspan7626">Actors Transactions</tspan></text>
</g></g><g
       id="g7630"><g
         id="g7632"
         clip-path="url(#clipPath7636)"><text
           transform="matrix(1,0,0,-1,355.68,408.72)"
           style="font-variant:normal;font-weight:normal;font-size:24px;font-family:Calibri;-inkscape-font-specification:Calibri;writing-mode:lr-tb;fill:#ffffff;fill-opacity:1;fill-rule:nonzero;stroke:none"
           id="text7640"><tspan
             x="0 11.016 22.511999 33.360001 44.855999"
             y="0"
             sodipodi:role="line"
             id="tspan7638">Sagas</tspan></text>
</g></g><path
       d="M 0,229.08 H 568.32 V 342.72 H 0 Z"
       style="fill:#203864;fill-opacity:1;fill-rule:evenodd;stroke:none"
       id="path7642"
       inkscape:connector-curvature="0" /><g
       id="g7644"><g
         id="g7646"
         clip-path="url(#clipPath7650)"><path
           d="M 0,229.08 H 568.32 V 342.72 H 0 Z"
           style="fill:none;stroke:#000000;stroke-width:0.95999998;stroke-linecap:butt;stroke-linejoin:miter;stroke-miterlimit:10;stroke-dasharray:none;stroke-opacity:1"
           id="path7652"
           inkscape:connector-curvature="0" /></g></g><g
       id="g7654"><g
         id="g7656"
         clip-path="url(#clipPath7660)"><text
           transform="matrix(1,0,0,-1,17.016,263.35)"
           style="font-variant:normal;font-weight:normal;font-size:24px;font-family:Calibri;-inkscape-font-specification:Calibri;writing-mode:lr-tb;fill:#ffffff;fill-opacity:1;fill-rule:nonzero;stroke:none"
           id="text7664"><tspan
             x="0 14.76 26.639999 34.439999 46.391998 54.816002 73.991997 79.512001 92.112 97.632004 106.776 114.816 120.336 130.29601 141.79201 147.312 152.832 163.752"
             y="0"
             sodipodi:role="line"
             id="tspan7662">Deterministically </tspan></text>
</g></g><g
       id="g7666"><g
         id="g7668"
         clip-path="url(#clipPath7672)"><text
           transform="matrix(1,0,0,-1,185.76,263.35)"
           style="font-variant:normal;font-weight:normal;font-size:24px;font-family:Calibri;-inkscape-font-specification:Calibri;writing-mode:lr-tb;fill:#ffffff;fill-opacity:1;fill-rule:nonzero;stroke:none"
           id="text7676"><tspan
             x="0 12.72 24.672001 37.271999 42.792 53.880001 64.440002 75.935997 88.536003 94.056"
             y="0"
             sodipodi:role="line"
             id="tspan7674">Replayable</tspan></text>
</g></g><g
       id="g7678"><g
         id="g7680"
         clip-path="url(#clipPath7684)"><text
           transform="matrix(1,0,0,-1,297.12,263.35)"
           style="font-variant:normal;font-weight:normal;font-size:24px;font-family:Calibri;-inkscape-font-specification:Calibri;writing-mode:lr-tb;fill:#ffffff;fill-opacity:1;fill-rule:nonzero;stroke:none"
           id="text7688"><tspan
             x="0 14.76 20.280001 29.4 37.439999 45.816002 51.335999 63.936001 76.536003 84.360001 96.311996 108.912"
             y="0"
             sodipodi:role="line"
             id="tspan7686">Distributed </tspan></text>
</g></g><g
       id="g7690"><g
         id="g7692"
         clip-path="url(#clipPath7696)"><text
           transform="matrix(1,0,0,-1,411.26,263.35)"
           style="font-variant:normal;font-weight:normal;font-size:24px;font-family:Calibri;-inkscape-font-specification:Calibri;writing-mode:lr-tb;fill:#ffffff;fill-opacity:1;fill-rule:nonzero;stroke:none"
           id="text7700"><tspan
             x="0 11.016 18.84 30.120001 37.919998 49.872002 55.200001 75.720001 87.216003 97.416 110.016 115.536 128.136"
             y="0"
             sodipodi:role="line"
             id="tspan7698">State Machine</tspan></text>
</g></g><g
       id="g7702"><g
         id="g7704"
         clip-path="url(#clipPath7708)"><path
           d="M 303.09,392.22 V 359.1 h 23.01 l -46.02,-33.12 -46.02,33.12 h 23.01 v 33.12 z"
           style="fill:#ffc000;fill-opacity:1;fill-rule:evenodd;stroke:none"
           id="path7710"
           inkscape:connector-curvature="0" /></g></g><g
       id="g7712"><g
         id="g7714"
         clip-path="url(#clipPath7718)"><path
           d="M 303.09,392.22 V 359.1 h 23.01 l -46.02,-33.12 -46.02,33.12 h 23.01 v 33.12 z"
           style="fill:none;stroke:#ffffff;stroke-width:1.55999994;stroke-linecap:butt;stroke-linejoin:miter;stroke-miterlimit:10;stroke-dasharray:none;stroke-opacity:1"
           id="path7720"
           inkscape:connector-curvature="0" /></g></g><g
       id="g7722"><g
         id="g7724"
         clip-path="url(#clipPath7728)"><text
           transform="matrix(1,0,0,-1,38.592,295.66)"
           style="font-variant:normal;font-weight:normal;font-size:27.95999908px;font-family:Calibri;-inkscape-font-specification:Calibri;writing-mode:lr-tb;fill:#ffc000;fill-opacity:1;fill-rule:nonzero;stroke:none"
           id="text7732"><tspan
             x="0 7.0459199 14.09184 21.22164 32.853001 47.587921 69.927963 84.606956 91.037758 97.35672 111.2808 122.21316 128.92355 135.35435 149.69785 158.81281 173.54771 180.06239 186.49319 200.83669 209.95164 223.87572 233.63376 255.9738 269.89789 284.57687 291.00769 304.14886 313.26385 327.18793 333.50687 342.92941 356.85349 371.53247 380.89908 394.82315 405.75552 419.6796 434.13492 443.13803 456.36313 465.72971 472.16052 486.89545 501.57443 508.62036 515.66626"
             y="0"
             sodipodi:role="line"
             id="tspan7730">...compiles into intermediate representation...</tspan></text>
</g></g><g
       id="g7734"><g
         id="g7736"
         clip-path="url(#clipPath7740)"><path
           d="M 129.06,244.02 V 205.2 h 22.2 l -44.4,-38.82 -44.4,38.82 h 22.2 v 38.82 z"
           style="fill:#ffc000;fill-opacity:1;fill-rule:evenodd;stroke:none"
           id="path7742"
           inkscape:connector-curvature="0" /></g></g><g
       id="g7744"><g
         id="g7746"
         clip-path="url(#clipPath7750)"><path
           d="M 129.06,244.02 V 205.2 h 22.2 l -44.4,-38.82 -44.4,38.82 h 22.2 v 38.82 z"
           style="fill:none;stroke:#ffffff;stroke-width:1.55999994;stroke-linecap:butt;stroke-linejoin:miter;stroke-miterlimit:10;stroke-dasharray:none;stroke-opacity:1"
           id="path7752"
           inkscape:connector-curvature="0" /></g></g><path
       d="m 169.32,148.89 c -2.33,15.38 9.7,29.55 26.87,31.64 6.96,0.85 14.04,-0.42 20.09,-3.6 6.43,10.84 21.43,14.96 33.52,9.2 2.11,-1 4.05,-2.28 5.76,-3.79 5,8.99 17.18,12.64 27.2,8.16 2.78,-1.24 5.2,-3.04 7.08,-5.25 8.06,8.5 22.3,9.55 31.81,2.35 4,-3.03 6.69,-7.21 7.62,-11.81 13.21,-3.23 21,-15.46 17.4,-27.31 -0.3,-1 -0.68,-1.97 -1.13,-2.92 10.59,-12.35 8,-30.05 -5.79,-39.54 -4.29,-2.95 -9.37,-4.86 -14.72,-5.55 -0.12,-13.288 -12.26,-23.974 -27.1,-23.867 -4.96,0.036 -9.82,1.299 -14.02,3.65 -5.03,-14.897 -22.54,-23.317 -39.13,-18.807 -6.95,1.891 -12.96,5.888 -16.99,11.311 -16.98,-9.175 -39.03,-4.239 -49.23,11.023 -0.13,0.193 -0.26,0.386 -0.38,0.581 -11.12,-1.165 -21.18,5.938 -22.49,15.869 -0.69,5.29 1.26,10.59 5.33,14.47 -9.62,5.08 -12.85,16.22 -7.22,24.88 3.25,5 8.96,8.31 15.36,8.9 z"
       style="fill:#5b9bd5;fill-opacity:1;fill-rule:evenodd;stroke:none"
       id="path7754"
       inkscape:connector-curvature="0" /><path
       d="m 169.32,148.89 c -2.33,15.38 9.7,29.55 26.87,31.64 6.96,0.85 14.04,-0.42 20.09,-3.6 6.43,10.84 21.43,14.96 33.52,9.2 2.11,-1 4.05,-2.28 5.76,-3.79 5,8.99 17.18,12.64 27.2,8.16 2.78,-1.24 5.2,-3.04 7.08,-5.25 8.06,8.5 22.3,9.55 31.81,2.35 4,-3.03 6.69,-7.21 7.62,-11.81 13.21,-3.23 21,-15.46 17.4,-27.31 -0.3,-1 -0.68,-1.97 -1.13,-2.92 10.59,-12.35 8,-30.05 -5.79,-39.54 -4.29,-2.95 -9.37,-4.86 -14.72,-5.55 -0.12,-13.288 -12.26,-23.974 -27.1,-23.867 -4.96,0.036 -9.82,1.299 -14.02,3.65 -5.03,-14.897 -22.54,-23.317 -39.13,-18.807 -6.95,1.891 -12.96,5.888 -16.99,11.311 -16.98,-9.175 -39.03,-4.239 -49.23,11.023 -0.13,0.193 -0.26,0.386 -0.38,0.581 -11.12,-1.165 -21.18,5.938 -22.49,15.869 -0.69,5.29 1.26,10.59 5.33,14.47 -9.62,5.08 -12.85,16.22 -7.22,24.88 3.25,5 8.96,8.31 15.36,8.9 z"
       style="fill:none;stroke:#41719c;stroke-width:0.95999998;stroke-linecap:butt;stroke-linejoin:miter;stroke-miterlimit:10;stroke-dasharray:none;stroke-opacity:1"
       id="path7756"
       inkscape:connector-curvature="0" /><path
       d="m 173.01,112.78 c -4.11,-0.29 -8.22,0.56 -11.77,2.44 M 183.4,86.107 c -1.66,-0.589 -3.39,-0.981 -5.15,-1.166 M 227.78,73.29 c -1.25,1.669 -2.29,3.453 -3.11,5.321 m 60.5,7.949 c -0.19,-1.98 -0.6,-3.938 -1.24,-5.839 m 25.88,41.919 c 9.31,-4.06 15.19,-12.55 15.11,-21.82 m 20.52,45.06 c -1.5,-3.16 -3.81,-5.96 -6.72,-8.18 m -9.42,38.55 c 0.26,-1.28 0.38,-2.57 0.36,-3.87 m -43.33,8.37 c 0.88,1.79 2.04,3.45 3.45,4.93 m -35.69,-7.28 c 0.36,1.48 0.92,2.91 1.67,4.26 m -39.5,-5.7 c 2.19,-1.15 4.22,-2.53 6.04,-4.12 m -51.92,-28.29 c -0.48,1.42 -0.83,2.87 -1.06,4.34"
       style="fill:none;stroke:#41719c;stroke-width:0.95999998;stroke-linecap:butt;stroke-linejoin:miter;stroke-miterlimit:10;stroke-dasharray:none;stroke-opacity:1"
       id="path7758"
       inkscape:connector-curvature="0" /><g
       id="g7760"><g
         id="g7762"
         clip-path="url(#clipPath7766)"><text
           transform="matrix(1,0,0,-1,216.5,150.53)"
           style="font-variant:normal;font-weight:normal;font-size:24px;font-family:Calibri;-inkscape-font-specification:Calibri;writing-mode:lr-tb;fill:#ffffff;fill-opacity:1;fill-rule:nonzero;stroke:none"
           id="text7770"><tspan
             x="0 13.896 23.280001 35.880001 43.919998 55.872002"
             y="0"
             sodipodi:role="line"
             id="tspan7768">Azure </tspan></text>
</g></g><g
       id="g7772"><g
         id="g7774"
         clip-path="url(#clipPath7778)"><text
           transform="matrix(1,0,0,-1,188.54,121.73)"
           style="font-variant:normal;font-weight:normal;font-size:24px;font-family:Calibri;-inkscape-font-specification:Calibri;writing-mode:lr-tb;fill:#ffffff;fill-opacity:1;fill-rule:nonzero;stroke:none"
           id="text7782"><tspan
             x="0 11.016 23.615999 36.216 46.416 54.456001 59.976002 72.624001 85.223999 94.536003 99.816002 111.768"
             y="0"
             sodipodi:role="line"
             id="tspan7780">Functions + </tspan></text>
</g></g><g
       id="g7784"><g
         id="g7786"
         clip-path="url(#clipPath7790)"><text
           transform="matrix(1,0,0,-1,187.22,92.928)"
           style="font-variant:normal;font-weight:normal;font-size:24px;font-family:Calibri;-inkscape-font-specification:Calibri;writing-mode:lr-tb;fill:#ffffff;fill-opacity:1;fill-rule:nonzero;stroke:none"
           id="text7794"><tspan
             x="0 13.896 23.280001 35.880001 43.919998 55.872002 61.296001 74.351997 79.872002 92.519997 105"
             y="0"
             sodipodi:role="line"
             id="tspan7792">Azure Blobs</tspan></text>
</g></g><path
       d="m 362.3,151.23 c -2,12.17 8.29,23.38 22.98,25.03 5.96,0.67 12.01,-0.33 17.19,-2.85 5.49,8.58 18.33,11.84 28.67,7.28 1.8,-0.79 3.46,-1.8 4.92,-2.99 4.28,7.1 14.7,9.99 23.27,6.45 2.38,-0.98 4.45,-2.4 6.06,-4.15 6.89,6.72 19.07,7.55 27.21,1.85 3.42,-2.39 5.72,-5.7 6.51,-9.34 11.3,-2.55 17.96,-12.23 14.89,-21.6 -0.26,-0.79 -0.58,-1.56 -0.97,-2.31 9.06,-9.77 6.84,-23.78 -4.96,-31.28 -3.67,-2.34 -8,-3.85 -12.59,-4.39 -0.1,-10.52 -10.48,-18.969 -23.18,-18.885 -4.24,0.028 -8.39,1.027 -11.99,2.887 -4.3,-11.785 -19.28,-18.446 -33.47,-14.877 -5.94,1.495 -11.08,4.657 -14.53,8.948 -14.53,-7.259 -33.38,-3.354 -42.11,8.72 -0.11,0.152 -0.22,0.307 -0.33,0.457 -9.5,-0.919 -18.11,4.7 -19.23,12.55 -0.59,4.19 1.07,8.38 4.56,11.46 -8.23,4.01 -10.99,12.82 -6.17,19.68 2.78,3.95 7.65,6.57 13.13,7.04 z"
       style="fill:#1f4e79;fill-opacity:1;fill-rule:evenodd;stroke:none"
       id="path7796"
       inkscape:connector-curvature="0" /><path
       d="m 362.3,151.23 c -2,12.17 8.29,23.38 22.98,25.03 5.96,0.67 12.01,-0.33 17.19,-2.85 5.49,8.58 18.33,11.84 28.67,7.28 1.8,-0.79 3.46,-1.8 4.92,-2.99 4.28,7.1 14.7,9.99 23.27,6.45 2.38,-0.98 4.45,-2.4 6.06,-4.15 6.89,6.72 19.07,7.55 27.21,1.85 3.42,-2.39 5.72,-5.7 6.51,-9.34 11.3,-2.55 17.96,-12.23 14.89,-21.6 -0.26,-0.79 -0.58,-1.56 -0.97,-2.31 9.06,-9.77 6.84,-23.78 -4.96,-31.28 -3.67,-2.34 -8,-3.85 -12.59,-4.39 -0.1,-10.52 -10.48,-18.969 -23.18,-18.885 -4.24,0.028 -8.39,1.027 -11.99,2.887 -4.3,-11.785 -19.28,-18.446 -33.47,-14.877 -5.94,1.495 -11.08,4.657 -14.53,8.948 -14.53,-7.259 -33.38,-3.354 -42.11,8.72 -0.11,0.152 -0.22,0.307 -0.33,0.457 -9.5,-0.919 -18.11,4.7 -19.23,12.55 -0.59,4.19 1.07,8.38 4.56,11.46 -8.23,4.01 -10.99,12.82 -6.17,19.68 2.78,3.95 7.65,6.57 13.13,7.04 z"
       style="fill:none;stroke:#787878;stroke-width:0.95999998;stroke-linecap:butt;stroke-linejoin:miter;stroke-miterlimit:10;stroke-dasharray:none;stroke-opacity:1"
       id="path7798"
       inkscape:connector-curvature="0" /><path
       d="m 365.45,122.67 c -3.51,-0.23 -7.02,0.44 -10.06,1.92 m 18.95,-23.03 c -1.41,-0.46 -2.9,-0.77 -4.41,-0.92 m 42.37,-9.216 c -1.06,1.321 -1.95,2.732 -2.65,4.21 m 51.74,6.286 c -0.16,-1.56 -0.51,-3.113 -1.06,-4.617 m 22.13,33.157 c 7.97,-3.21 13,-9.92 12.93,-17.26 m 17.56,35.65 c -1.29,-2.5 -3.26,-4.71 -5.76,-6.47 m -8.05,30.49 c 0.22,-1.01 0.32,-2.03 0.3,-3.06 m -37.05,6.63 c 0.74,1.41 1.74,2.72 2.94,3.9 m -30.52,-5.76 c 0.31,1.17 0.79,2.3 1.43,3.36 m -33.79,-4.5 c 1.88,-0.91 3.61,-2.01 5.17,-3.26 M 363.2,147.8 c -0.4,1.12 -0.71,2.27 -0.9,3.43"
       style="fill:none;stroke:#787878;stroke-width:0.95999998;stroke-linecap:butt;stroke-linejoin:miter;stroke-miterlimit:10;stroke-dasharray:none;stroke-opacity:1"
       id="path7800"
       inkscape:connector-curvature="0" /><g
       id="g7802"><g
         id="g7804"
         clip-path="url(#clipPath7808)"><text
           transform="matrix(1,0,0,-1,380.23,142.44)"
           style="font-variant:normal;font-weight:normal;font-size:24.02400017px;font-family:Calibri;-inkscape-font-specification:Calibri;writing-mode:lr-tb;fill:#ffffff;fill-opacity:1;fill-rule:nonzero;stroke:none"
           id="text7812"><tspan
             x="0 13.909896 33.105072 45.71767 53.765713 66.426361 75.723648 81.249168"
             y="0"
             sodipodi:role="line"
             id="tspan7810">Ambrosia</tspan></text>
</g></g><g
       id="g7814"><g
         id="g7816"
         clip-path="url(#clipPath7820)"><text
           transform="matrix(1,0,0,-1,394.27,113.62)"
           style="font-variant:normal;font-weight:normal;font-size:24px;font-family:Calibri;-inkscape-font-specification:Calibri;writing-mode:lr-tb;fill:#ffffff;fill-opacity:1;fill-rule:nonzero;stroke:none"
           id="text7824"><tspan
             x="0 12.6"
             y="0"
             sodipodi:role="line"
             id="tspan7822">on</tspan></text>
</g></g><g
       id="g7826"><g
         id="g7828"
         clip-path="url(#clipPath7832)"><text
           transform="matrix(1,0,0,-1,424.87,113.62)"
           style="font-variant:normal;font-weight:normal;font-size:24px;font-family:Calibri;-inkscape-font-specification:Calibri;writing-mode:lr-tb;fill:#ffffff;fill-opacity:1;fill-rule:nonzero;stroke:none"
           id="text7836"><tspan
             x="0 12.48"
             y="0"
             sodipodi:role="line"
             id="tspan7834">K8</tspan></text>
</g></g><g
       id="g7838"><g
         id="g7840"
         clip-path="url(#clipPath7844)"><text
           transform="matrix(1,0,0,-1,449.47,113.62)"
           style="font-variant:normal;font-weight:normal;font-size:24px;font-family:Calibri;-inkscape-font-specification:Calibri;writing-mode:lr-tb;fill:#ffffff;fill-opacity:1;fill-rule:nonzero;stroke:none"
           id="text7848"><tspan
             x="0"
             y="0"
             id="tspan7846">s</tspan></text>
</g></g><g
       id="g7850"><g
         id="g7852"
         clip-path="url(#clipPath7856)"><text
           transform="matrix(1,0,0,-1,16.704,505.42)"
           style="font-variant:normal;font-weight:normal;font-size:27.98399925px;font-family:Calibri;-inkscape-font-specification:Calibri;writing-mode:lr-tb;fill:#ffc000;fill-opacity:1;fill-rule:nonzero;stroke:none"
           id="text7860"><tspan
             x="0 16.202736 30.894337 45.473999 51.91032 58.206718 69.848061 83.056511 92.431152 98.783524 113.53109 128.22269 134.88287 146.63615 161.38373 174.56419 181.00052 192.83774 199.16212 205.43054 216.37228"
             y="0"
             sodipodi:role="line"
             id="tspan7858">Application Logic is </tspan></text>
</g></g><g
       id="g7862"><g
         id="g7864"
         clip-path="url(#clipPath7868)"><text
           transform="matrix(1,0,0,-1,239.57,505.42)"
           style="font-variant:normal;font-weight:bold;font-size:27.98399925px;font-family:Calibri;-inkscape-font-specification:Calibri-Bold;writing-mode:lr-tb;fill:#ffc000;fill-opacity:1;fill-rule:nonzero;stroke:none"
           id="text7872"><tspan
             x="0 9.4865761 23.310673 34.476288"
             y="0"
             sodipodi:role="line"
             id="tspan7870">task</tspan></text>
</g></g><g
       id="g7874"><g
         id="g7876"
         clip-path="url(#clipPath7880)"><text
           transform="matrix(1,0,0,-1,287.45,505.42)"
           style="font-variant:normal;font-weight:bold;font-size:27.98399925px;font-family:Calibri;-inkscape-font-specification:Calibri-Bold;writing-mode:lr-tb;fill:#ffc000;fill-opacity:1;fill-rule:nonzero;stroke:none"
           id="text7884"><tspan
             x="0"
             y="0"
             id="tspan7882">-</tspan></text>
</g></g><g
       id="g7886"><g
         id="g7888"
         clip-path="url(#clipPath7892)"><text
           transform="matrix(1,0,0,-1,295.97,505.42)"
           style="font-variant:normal;font-weight:bold;font-size:27.98399925px;font-family:Calibri;-inkscape-font-specification:Calibri-Bold;writing-mode:lr-tb;fill:#ffc000;fill-opacity:1;fill-rule:nonzero;stroke:none"
           id="text7896"><tspan
             x="0 15.027408 28.851503 40.01712 54.009121 69.03653 76.508255 83.896034"
             y="0"
             sodipodi:role="line"
             id="tspan7894">based...</tspan></text>
</g></g><g
       id="g7898"><g
         id="g7900"
         clip-path="url(#clipPath7904)"><text
           transform="matrix(1,0,0,-1,16.704,44.712)"
           style="font-variant:normal;font-weight:normal;font-size:27.95999908px;font-family:Calibri;-inkscape-font-specification:Calibri;writing-mode:lr-tb;fill:#ffc000;fill-opacity:1;fill-rule:nonzero;stroke:none"
           id="text7908"><tspan
             x="0 7.0459199 14.09184 21.22164 27.680401 41.073238 55.752239 70.431236 76.973877 91.652878 105.57696 120.25596 126.54696 141.198 153.55632 164.48868 171.05928 185.7942 200.47321 206.90401 220.29684 226.6158 241.2948 256.02972 266.54269 275.90927 282.47989 302.47128 308.90207 318.26868 332.94769 339.32257 352.77133 364.40268 377.79553 389.70648 399.07309 405.50388"
             y="0"
             sodipodi:role="line"
             id="tspan7906">... and deploys on a host with exactly</tspan></text>
</g></g><g
       id="g7910"><g
         id="g7912"
         clip-path="url(#clipPath7916)"><text
           transform="matrix(1,0,0,-1,434.95,44.712)"
           style="font-variant:normal;font-weight:normal;font-size:27.95999908px;font-family:Calibri;-inkscape-font-specification:Calibri;writing-mode:lr-tb;fill:#ffc000;fill-opacity:1;fill-rule:nonzero;stroke:none"
           id="text7920"><tspan
             x="0"
             y="0"
             id="tspan7918">-</tspan></text>
</g></g><g
       id="g7922"><g
         id="g7924"
         clip-path="url(#clipPath7928)"><text
           transform="matrix(1,0,0,-1,443.47,44.712)"
           style="font-variant:normal;font-weight:normal;font-size:27.95999908px;font-family:Calibri;-inkscape-font-specification:Calibri;writing-mode:lr-tb;fill:#ffc000;fill-opacity:1;fill-rule:nonzero;stroke:none"
           id="text7932"><tspan
             x="0 14.73492 29.413919 41.241001 55.165081"
             y="0"
             sodipodi:role="line"
             id="tspan7930">once </tspan></text>
</g></g><g
       id="g7934"><g
         id="g7936"
         clip-path="url(#clipPath7940)"><text
           transform="matrix(1,0,0,-1,16.704,11.112)"
           style="font-variant:normal;font-weight:bold;font-size:27.95999908px;font-family:Calibri;-inkscape-font-specification:Calibri-Bold;writing-mode:lr-tb;fill:#ffc000;fill-opacity:1;fill-rule:nonzero;stroke:none"
           id="text7944"><tspan
             x="0 22.73148 36.795361 47.951401 59.107441 72.919678 85.921082"
             y="0"
             sodipodi:role="line"
             id="tspan7942">message</tspan></text>
</g></g><g
       id="g7946"><g
         id="g7948"
         clip-path="url(#clipPath7952)"><text
           transform="matrix(1,0,0,-1,123.14,11.112)"
           style="font-variant:normal;font-weight:normal;font-size:27.95999908px;font-family:Calibri;-inkscape-font-specification:Calibri;writing-mode:lr-tb;fill:#ffc000;fill-opacity:1;fill-rule:nonzero;stroke:none"
           id="text7956"><tspan
             x="0 14.679 28.603081 34.922039 41.35284 53.655239 67.579323 77.337357 90.003242 96.461998 109.85484 124.53384 139.21284 145.75548 160.43448 169.63332 184.36824 196.19531 210.1194 221.05176 231.98412 238.41492 253.09392"
             y="0"
             sodipodi:role="line"
             id="tspan7954">delivery and processing</tspan></text>
</g></g><g
       id="g7958"><g
         id="g7960"
         clip-path="url(#clipPath7964)"><path
           d="M 329.79,245.58 V 206.7 h 22.23 L 307.56,167.82 263.1,206.7 h 22.23 v 38.88 z"
           style="fill:#ffc000;fill-opacity:1;fill-rule:evenodd;stroke:none"
           id="path7966"
           inkscape:connector-curvature="0" /></g></g><g
       id="g7968"><g
         id="g7970"
         clip-path="url(#clipPath7974)"><path
           d="M 329.79,245.58 V 206.7 h 22.23 L 307.56,167.82 263.1,206.7 h 22.23 v 38.88 z"
           style="fill:none;stroke:#ffffff;stroke-width:1.55999994;stroke-linecap:butt;stroke-linejoin:miter;stroke-miterlimit:10;stroke-dasharray:none;stroke-opacity:1"
           id="path7976"
           inkscape:connector-curvature="0" /></g></g><g
       id="g7978"><g
         id="g7980"
         clip-path="url(#clipPath7984)"><path
           d="M 489.9,245.58 V 206.7 h 22.2 l -44.4,-38.88 -44.4,38.88 h 22.2 v 38.88 z"
           style="fill:#ffc000;fill-opacity:1;fill-rule:evenodd;stroke:none"
           id="path7986"
           inkscape:connector-curvature="0" /></g></g><g
       id="g7988"><g
         id="g7990"
         clip-path="url(#clipPath7994)"><path
           d="M 489.9,245.58 V 206.7 h 22.2 l -44.4,-38.88 -44.4,38.88 h 22.2 v 38.88 z"
           style="fill:none;stroke:#ffffff;stroke-width:1.55999994;stroke-linecap:butt;stroke-linejoin:miter;stroke-miterlimit:10;stroke-dasharray:none;stroke-opacity:1"
           id="path7996"
           inkscape:connector-curvature="0" /></g></g></g></svg>