<?xml version="1.0" encoding="utf-8"?>
<!-- Generator: Adobe Illustrator 19.0.0, SVG Export Plug-In . SVG Version: 6.00 Build 0)  -->
<svg version="1.1" id="Layer_1" xmlns="http://www.w3.org/2000/svg" xmlns:xlink="http://www.w3.org/1999/xlink" x="0px" y="0px"
	 viewBox="0 0 800 600" style="enable-background:new 0 0 800 600;" xml:space="preserve">
<style type="text/css">
	.st0{fill:#006EB6;}
</style>
<g id="XMLID_466_">
	<g id="XMLID_1422_">
		<path id="XMLID_1438_" class="st0" d="M498.5,199.8c-12.1,0-12.1-18.3,0-18.3C510.6,181.4,510.6,199.8,498.5,199.8z"/>
		<path id="XMLID_1437_" class="st0" d="M498.5,236.2c0,12.1-18.3,12.1-18.3,0C480.2,224,498.5,224,498.5,236.2z"/>
		<path id="XMLID_1436_" class="st0" d="M428.1,304.8c-12.1,0-12.1-18.3,0-18.3C440.2,286.5,440.2,304.8,428.1,304.8z"/>
		<path id="XMLID_1435_" class="st0" d="M490.2,282.4c3.5,9.8-6,19.2-15.8,15.8l-29,29v22.1h26.7c23.4,0,42.4-19,42.4-42.4v-48.8
			L490.2,282.4z"/>
		<path id="XMLID_1434_" class="st0" d="M305.7,190.1c-2.4-9.2,6-17.6,15.1-15.1l32.7-32.7V123h-22.9c-23.4,0-42.4,19-42.4,42.4
			v42.2L305.7,190.1z"/>
		<path id="XMLID_1430_" class="st0" d="M472.1,123h-12.4v77.8l-58.3,58.3c3,8.1-3,16.7-11.6,16.7c-6.8,0-12.4-5.6-12.4-12.4
			c0-8.4,8.3-14.5,16.4-11.7l55.3-55.3V123h-33.6v46.9L318.2,267c3.1,8.2-3,16.8-11.6,16.8c-6.8,0-12.4-5.6-12.4-12.4
			c0-8.4,8.3-14.5,16.3-11.7l94.2-94.2V123h-40.7v23.7L329,181.9c4.7,10.4-6.1,21-16.4,16.4l-24.4,24.4v84.2
			c0,23.4,19,42.4,42.4,42.4h10.5v-83.1l57.3-57.3c-2.9-8.1,3.2-16.6,11.7-16.6c6.8,0,12.4,5.6,12.4,12.4c0,8.5-8.4,14.6-16.6,11.7
			l-54.2,54.2v78.7h38v-57.5l97.1-97.1c-2.9-8.1,3.2-16.6,11.7-16.6c6.8,0,12.4,5.6,12.4,12.4c0,8.5-8.4,14.6-16.6,11.7l-94,94v53.1
			h34.5v-26.5l32.1-32.1c-3.6-9.9,6-19.4,15.9-15.9l31.7-31.7v-77.7C514.5,142,495.5,123,472.1,123z M313.2,217.7l45.1-45.1
			c-2.4-8,3.6-16,11.9-16c6.8,0,12.4,5.6,12.4,12.4c0,8.8-9,14.8-17.1,11.4l-45.1,45.1c2.4,8-3.6,16-11.9,16
			c-6.8,0-12.4-5.6-12.4-12.4C296.1,220.4,305.1,214.4,313.2,217.7z M484.7,247.6L440,292.3c2.2,8-3.8,15.7-11.9,15.7
			c-6.8,0-12.4-5.6-12.4-12.4c0-8.9,9.2-14.9,17.3-11.4l44.4-44.4c-2.5-8,3.5-16.1,11.8-16.1c6.8,0,12.4,5.6,12.4,12.4
			C501.7,244.9,492.8,251,484.7,247.6z"/>
		<path id="XMLID_1429_" class="st0" d="M317.7,196.1c-12.1,0-12.1-18.3,0-18.3C329.8,177.8,329.8,196.1,317.7,196.1z"/>
		<path id="XMLID_1428_" class="st0" d="M317.7,229.2c0,12.1-18.3,12.1-18.3,0C299.4,217.1,317.7,217.1,317.7,229.2z"/>
		<path id="XMLID_1427_" class="st0" d="M315.8,271.4c0,12.1-18.3,12.1-18.3,0C297.5,259.3,315.8,259.3,315.8,271.4z"/>
		<path id="XMLID_1426_" class="st0" d="M370.2,178.3c-12.1,0-12.1-18.3,0-18.3C382.3,159.9,382.3,178.3,370.2,178.3z"/>
		<path id="XMLID_1425_" class="st0" d="M419.2,204.8c0,12.1-18.3,12.1-18.3,0C400.9,192.7,419.2,192.6,419.2,204.8z"/>
		<path id="XMLID_1424_" class="st0" d="M389.7,272.6c-5.1,0-9.2-4.1-9.2-9.2c0-5.1,4.1-9.2,9.2-9.2
			C401.8,254.2,401.8,272.6,389.7,272.6z"/>
		<path id="XMLID_1423_" class="st0" d="M478.6,295.6c-12.1,0-12.1-18.3,0-18.3C490.7,277.3,490.7,295.6,478.6,295.6z"/>
	</g>
	<g id="XMLID_489_">
		<path id="XMLID_490_" class="st0" d="M281,433.9c0,0.2,0,0.4-0.1,0.5c-0.1,0.2-0.2,0.3-0.5,0.4c-0.3,0.1-0.6,0.2-1.1,0.2
			c-0.5,0.1-1.1,0.1-1.8,0.1c-0.7,0-1.2,0-1.6-0.1c-0.4-0.1-0.7-0.1-1-0.2c-0.3-0.1-0.4-0.3-0.6-0.5c-0.1-0.2-0.3-0.5-0.4-0.8
			l-4.5-11.5c-0.5-1.3-1.1-2.5-1.6-3.6c-0.6-1.1-1.2-2-2-2.8c-0.8-0.8-1.7-1.4-2.8-1.8c-1.1-0.4-2.3-0.7-3.8-0.7h-4.3v20.8
			c0,0.2-0.1,0.4-0.2,0.5c-0.1,0.2-0.3,0.3-0.5,0.4c-0.2,0.1-0.6,0.2-1,0.2c-0.4,0.1-0.9,0.1-1.6,0.1c-0.6,0-1.1,0-1.6-0.1
			c-0.4-0.1-0.7-0.1-1-0.2c-0.3-0.1-0.4-0.2-0.5-0.4c-0.1-0.2-0.2-0.3-0.2-0.5v-45.1c0-1,0.3-1.7,0.8-2.1s1.1-0.6,1.6-0.6h10.4
			c1.2,0,2.3,0,3.1,0.1c0.8,0.1,1.6,0.1,2.2,0.2c1.9,0.3,3.5,0.8,5,1.5c1.4,0.7,2.7,1.6,3.6,2.7c1,1.1,1.7,2.3,2.2,3.7
			c0.5,1.4,0.7,2.9,0.7,4.6c0,1.6-0.2,3.1-0.7,4.4c-0.4,1.3-1.1,2.4-1.9,3.4c-0.8,1-1.8,1.9-3,2.6c-1.2,0.7-2.4,1.3-3.9,1.8
			c0.8,0.4,1.5,0.8,2.2,1.3c0.7,0.5,1.3,1.2,1.8,1.9c0.6,0.8,1.1,1.6,1.6,2.6c0.5,1,1,2.1,1.5,3.3l4.4,10.7c0.4,0.9,0.6,1.5,0.7,1.9
			C280.9,433.4,281,433.7,281,433.9z M271.2,399.6c0-1.9-0.4-3.5-1.3-4.8c-0.9-1.3-2.3-2.3-4.3-2.8c-0.6-0.2-1.3-0.3-2.1-0.4
			c-0.8-0.1-1.8-0.1-3.1-0.1h-5.5v16.4h6.3c1.7,0,3.2-0.2,4.4-0.6c1.2-0.4,2.3-1,3.1-1.7c0.8-0.7,1.4-1.6,1.8-2.6
			C271,401.9,271.2,400.8,271.2,399.6z"/>
		<path id="XMLID_509_" class="st0" d="M319,432.2c0,0.5,0,0.8-0.1,1.2c-0.1,0.3-0.1,0.6-0.3,0.8c-0.1,0.2-0.3,0.4-0.4,0.5
			s-0.3,0.2-0.5,0.2h-23.4c-0.6,0-1.1-0.2-1.6-0.6s-0.8-1.1-0.8-2.1v-43.5c0-1,0.3-1.7,0.8-2.1s1.1-0.6,1.6-0.6h23.1
			c0.2,0,0.4,0.1,0.5,0.2c0.2,0.1,0.3,0.3,0.4,0.5c0.1,0.2,0.2,0.5,0.2,0.8c0.1,0.3,0.1,0.8,0.1,1.3c0,0.5,0,0.8-0.1,1.2
			c-0.1,0.3-0.1,0.6-0.2,0.8s-0.2,0.4-0.4,0.5c-0.2,0.1-0.3,0.2-0.5,0.2h-19.1v15.3h16.4c0.2,0,0.4,0.1,0.5,0.2
			c0.2,0.1,0.3,0.3,0.4,0.5c0.1,0.2,0.2,0.5,0.2,0.8c0.1,0.4,0.1,0.8,0.1,1.2c0,0.5,0,0.8-0.1,1.2c-0.1,0.3-0.1,0.6-0.2,0.8
			c-0.1,0.2-0.3,0.3-0.4,0.4c-0.2,0.1-0.3,0.1-0.5,0.1h-16.4v17.4h19.3c0.2,0,0.4,0.1,0.5,0.2s0.3,0.3,0.4,0.5
			c0.1,0.2,0.2,0.5,0.3,0.8C319,431.3,319,431.7,319,432.2z"/>
		<path id="XMLID_511_" class="st0" d="M366.8,432.6c0.2,0.6,0.3,1,0.3,1.3c0,0.3-0.1,0.6-0.3,0.8c-0.2,0.2-0.5,0.3-1,0.3
			c-0.5,0.1-1.1,0.1-1.9,0.1c-0.8,0-1.4,0-1.9-0.1c-0.5,0-0.8-0.1-1.1-0.2c-0.2-0.1-0.4-0.2-0.5-0.4c-0.1-0.2-0.2-0.3-0.3-0.6
			l-4.2-11.9h-20.3l-4,11.7c-0.1,0.2-0.2,0.4-0.3,0.6c-0.1,0.2-0.3,0.3-0.5,0.4c-0.2,0.1-0.6,0.2-1,0.2c-0.4,0.1-1,0.1-1.7,0.1
			c-0.7,0-1.3,0-1.8-0.1c-0.5-0.1-0.8-0.2-1-0.4s-0.3-0.4-0.3-0.8c0-0.3,0.1-0.8,0.3-1.3l16.4-45.3c0.1-0.3,0.2-0.5,0.4-0.7
			s0.4-0.3,0.7-0.4c0.3-0.1,0.7-0.2,1.2-0.2c0.5,0,1.1-0.1,1.9-0.1c0.8,0,1.5,0,2,0.1c0.5,0,1,0.1,1.3,0.2c0.3,0.1,0.6,0.2,0.8,0.4
			c0.2,0.2,0.3,0.4,0.4,0.7L366.8,432.6z M345.8,392.6L345.8,392.6l-8.4,24.3h17L345.8,392.6z"/>
		<path id="XMLID_514_" class="st0" d="M408.5,428c0,0.4,0,0.8,0,1.1c0,0.3-0.1,0.6-0.1,0.8c-0.1,0.2-0.1,0.4-0.2,0.6
			c-0.1,0.2-0.3,0.4-0.5,0.6s-0.8,0.6-1.6,1.1c-0.8,0.5-1.8,1-3,1.5c-1.2,0.5-2.6,0.9-4.1,1.2c-1.5,0.3-3.2,0.5-5.1,0.5
			c-3.2,0-6-0.5-8.6-1.6c-2.5-1.1-4.7-2.6-6.5-4.7c-1.8-2.1-3.2-4.6-4.1-7.6c-1-3-1.5-6.5-1.5-10.5c0-4,0.5-7.6,1.6-10.8
			c1-3.2,2.5-5.8,4.4-8c1.9-2.2,4.1-3.9,6.8-5c2.6-1.2,5.5-1.7,8.7-1.7c1.4,0,2.8,0.1,4.1,0.4c1.3,0.3,2.6,0.6,3.7,1s2.1,0.9,3,1.4
			c0.9,0.5,1.5,1,1.8,1.3c0.3,0.3,0.6,0.6,0.7,0.8c0.1,0.2,0.2,0.4,0.2,0.6c0.1,0.2,0.1,0.5,0.2,0.8c0,0.3,0.1,0.7,0.1,1.2
			c0,0.5,0,0.9-0.1,1.3c-0.1,0.4-0.1,0.6-0.2,0.9c-0.1,0.2-0.2,0.4-0.4,0.5c-0.1,0.1-0.3,0.2-0.5,0.2c-0.4,0-0.8-0.2-1.5-0.7
			s-1.4-1-2.4-1.6c-1-0.6-2.2-1.1-3.6-1.6c-1.4-0.5-3.1-0.7-5.1-0.7c-2.2,0-4.1,0.4-5.9,1.3c-1.8,0.9-3.3,2.1-4.6,3.8
			c-1.3,1.7-2.2,3.7-2.9,6.2c-0.7,2.4-1,5.2-1,8.3c0,3.1,0.3,5.8,1,8.2c0.7,2.4,1.6,4.4,2.9,6c1.2,1.6,2.8,2.8,4.6,3.6
			c1.8,0.8,3.9,1.2,6.2,1.2c1.9,0,3.6-0.2,5.1-0.7c1.5-0.5,2.7-1,3.7-1.6c1-0.6,1.9-1.1,2.5-1.6c0.7-0.5,1.2-0.7,1.6-0.7
			c0.2,0,0.3,0,0.5,0.1c0.1,0.1,0.2,0.2,0.3,0.4c0.1,0.2,0.1,0.5,0.2,0.9C408.4,426.9,408.5,427.4,408.5,428z"/>
		<path id="XMLID_625_" class="st0" d="M449.5,388.9c0,0.5,0,0.9-0.1,1.2c-0.1,0.4-0.1,0.6-0.2,0.8c-0.1,0.2-0.3,0.4-0.4,0.5
			c-0.2,0.1-0.3,0.2-0.5,0.2h-13.7v42.3c0,0.2-0.1,0.4-0.2,0.5c-0.1,0.2-0.3,0.3-0.5,0.4c-0.3,0.1-0.6,0.2-1,0.2
			c-0.4,0.1-0.9,0.1-1.6,0.1c-0.6,0-1.1,0-1.5-0.1c-0.4-0.1-0.8-0.1-1-0.2c-0.3-0.1-0.4-0.2-0.5-0.4c-0.1-0.2-0.2-0.3-0.2-0.5v-42.3
			h-13.7c-0.2,0-0.4-0.1-0.5-0.2c-0.2-0.1-0.3-0.3-0.4-0.5c-0.1-0.2-0.2-0.5-0.2-0.8c-0.1-0.4-0.1-0.8-0.1-1.2c0-0.5,0-0.9,0.1-1.3
			c0.1-0.4,0.1-0.7,0.2-0.9c0.1-0.2,0.2-0.4,0.4-0.5c0.2-0.1,0.3-0.2,0.5-0.2h33.9c0.2,0,0.4,0.1,0.5,0.2c0.2,0.1,0.3,0.3,0.4,0.5
			c0.1,0.2,0.2,0.5,0.2,0.9C449.5,388,449.5,388.4,449.5,388.9z"/>
		<path id="XMLID_627_" class="st0" d="M464.6,433.9c0,0.2-0.1,0.4-0.2,0.5c-0.1,0.2-0.3,0.3-0.5,0.4c-0.3,0.1-0.6,0.2-1,0.2
			c-0.4,0.1-0.9,0.1-1.6,0.1c-0.6,0-1.1,0-1.5-0.1c-0.4-0.1-0.8-0.1-1-0.2c-0.3-0.1-0.4-0.2-0.5-0.4c-0.1-0.2-0.2-0.3-0.2-0.5v-46.8
			c0-0.2,0.1-0.4,0.2-0.5c0.1-0.2,0.3-0.3,0.6-0.4c0.3-0.1,0.6-0.2,1-0.2c0.4-0.1,0.9-0.1,1.5-0.1c0.6,0,1.1,0,1.6,0.1
			c0.4,0.1,0.7,0.1,1,0.2c0.3,0.1,0.4,0.2,0.5,0.4c0.1,0.2,0.2,0.3,0.2,0.5V433.9z"/>
		<path id="XMLID_629_" class="st0" d="M498.8,433.7c-0.1,0.3-0.2,0.5-0.4,0.7c-0.2,0.2-0.4,0.3-0.7,0.4c-0.3,0.1-0.7,0.2-1.2,0.2
			c-0.5,0-1.1,0.1-1.8,0.1c-0.6,0-1,0-1.4,0c-0.4,0-0.8,0-1.1-0.1c-0.3-0.1-0.6-0.1-0.8-0.2c-0.2-0.1-0.4-0.1-0.5-0.2
			s-0.3-0.2-0.4-0.4c-0.1-0.1-0.2-0.3-0.2-0.5l-15.9-45.3c-0.2-0.6-0.3-1-0.3-1.3c0-0.3,0.1-0.6,0.3-0.8c0.2-0.2,0.6-0.3,1.1-0.3
			c0.5,0,1.2-0.1,2-0.1c0.7,0,1.3,0,1.7,0.1c0.4,0,0.7,0.1,1,0.2c0.2,0.1,0.4,0.2,0.5,0.4c0.1,0.2,0.2,0.4,0.3,0.6l14,41h0l13.6-41
			c0.1-0.3,0.2-0.5,0.3-0.7c0.1-0.2,0.3-0.3,0.5-0.4c0.3-0.1,0.6-0.2,1.1-0.2c0.5,0,1.1-0.1,1.8-0.1c0.8,0,1.4,0,1.8,0.1
			c0.5,0.1,0.8,0.2,0.9,0.4c0.2,0.2,0.2,0.4,0.2,0.8c0,0.3-0.2,0.8-0.4,1.3L498.8,433.7z"/>
		<path id="XMLID_673_" class="st0" d="M551.5,432.2c0,0.5,0,0.8-0.1,1.2c-0.1,0.3-0.1,0.6-0.3,0.8c-0.1,0.2-0.3,0.4-0.4,0.5
			s-0.3,0.2-0.5,0.2h-23.4c-0.6,0-1.1-0.2-1.6-0.6c-0.5-0.4-0.8-1.1-0.8-2.1v-43.5c0-1,0.3-1.7,0.8-2.1c0.5-0.4,1.1-0.6,1.6-0.6H550
			c0.2,0,0.4,0.1,0.5,0.2c0.2,0.1,0.3,0.3,0.4,0.5c0.1,0.2,0.2,0.5,0.2,0.8c0.1,0.3,0.1,0.8,0.1,1.3c0,0.5,0,0.8-0.1,1.2
			c-0.1,0.3-0.1,0.6-0.2,0.8c-0.1,0.2-0.2,0.4-0.4,0.5c-0.2,0.1-0.3,0.2-0.5,0.2h-19.1v15.3h16.4c0.2,0,0.4,0.1,0.5,0.2
			c0.2,0.1,0.3,0.3,0.4,0.5c0.1,0.2,0.2,0.5,0.2,0.8c0.1,0.4,0.1,0.8,0.1,1.2c0,0.5,0,0.8-0.1,1.2c-0.1,0.3-0.1,0.6-0.2,0.8
			c-0.1,0.2-0.3,0.3-0.4,0.4c-0.2,0.1-0.3,0.1-0.5,0.1h-16.4v17.4h19.3c0.2,0,0.4,0.1,0.5,0.2s0.3,0.3,0.4,0.5
			c0.1,0.2,0.2,0.5,0.3,0.8C551.5,431.3,551.5,431.7,551.5,432.2z"/>
	</g>
	<g id="XMLID_465_">
		<path id="XMLID_469_" class="st0" d="M348.7,476.2c0,0.1,0,0.2-0.1,0.3c-0.1,0.1-0.1,0.1-0.3,0.2c-0.1,0-0.3,0.1-0.5,0.1
			c-0.2,0-0.5,0-0.8,0c-0.3,0-0.6,0-0.8,0s-0.4-0.1-0.5-0.1c-0.1,0-0.2-0.1-0.3-0.2c-0.1-0.1-0.1-0.2-0.1-0.3v-21.9h0l-8.9,22
			c0,0.1-0.1,0.2-0.2,0.2s-0.2,0.1-0.3,0.2c-0.1,0-0.3,0.1-0.5,0.1s-0.4,0-0.7,0c-0.3,0-0.5,0-0.7,0c-0.2,0-0.4-0.1-0.5-0.1
			c-0.1,0-0.2-0.1-0.3-0.2c-0.1-0.1-0.1-0.1-0.1-0.2l-8.5-22h0v21.9c0,0.1,0,0.2-0.1,0.3c-0.1,0.1-0.1,0.1-0.3,0.2
			c-0.1,0-0.3,0.1-0.5,0.1c-0.2,0-0.5,0-0.8,0c-0.3,0-0.6,0-0.8,0s-0.4-0.1-0.5-0.1c-0.1,0-0.2-0.1-0.3-0.2c0-0.1-0.1-0.2-0.1-0.3
			V453c0-0.5,0.1-0.9,0.4-1.2c0.3-0.2,0.6-0.3,1-0.3h2.1c0.4,0,0.8,0,1.1,0.1c0.3,0.1,0.6,0.2,0.8,0.4c0.2,0.2,0.4,0.4,0.6,0.6
			c0.2,0.3,0.3,0.6,0.4,0.9l7.2,18.2h0.1l7.5-18.2c0.1-0.4,0.3-0.7,0.5-1c0.2-0.3,0.4-0.5,0.6-0.7c0.2-0.2,0.4-0.3,0.7-0.3
			c0.3-0.1,0.5-0.1,0.9-0.1h2.2c0.2,0,0.4,0,0.6,0.1c0.2,0.1,0.3,0.1,0.5,0.3s0.2,0.3,0.3,0.5c0.1,0.2,0.1,0.4,0.1,0.7V476.2z"/>
		<path id="XMLID_471_" class="st0" d="M375,475.5c0.1,0.3,0.2,0.5,0.2,0.7c0,0.2,0,0.3-0.1,0.4s-0.3,0.1-0.5,0.2c-0.2,0-0.6,0-1,0
			c-0.4,0-0.7,0-1,0c-0.2,0-0.4-0.1-0.5-0.1c-0.1,0-0.2-0.1-0.3-0.2s-0.1-0.2-0.2-0.3l-2.2-6.1H359l-2.1,6c0,0.1-0.1,0.2-0.2,0.3
			c-0.1,0.1-0.2,0.2-0.3,0.2c-0.1,0.1-0.3,0.1-0.5,0.1c-0.2,0-0.5,0-0.9,0c-0.4,0-0.7,0-0.9,0c-0.2,0-0.4-0.1-0.5-0.2
			c-0.1-0.1-0.1-0.2-0.1-0.4c0-0.2,0.1-0.4,0.2-0.7l8.4-23.4c0.1-0.1,0.1-0.3,0.2-0.3c0.1-0.1,0.2-0.2,0.4-0.2
			c0.2-0.1,0.4-0.1,0.6-0.1c0.3,0,0.6,0,1,0c0.4,0,0.8,0,1,0c0.3,0,0.5,0.1,0.7,0.1c0.2,0.1,0.3,0.1,0.4,0.2s0.2,0.2,0.2,0.4
			L375,475.5z M364.2,454.9L364.2,454.9l-4.4,12.5h8.7L364.2,454.9z"/>
		<path id="XMLID_476_" class="st0" d="M396.5,473.1c0,0.2,0,0.4,0,0.5c0,0.2,0,0.3-0.1,0.4c0,0.1-0.1,0.2-0.1,0.3
			c-0.1,0.1-0.1,0.2-0.3,0.3c-0.1,0.1-0.4,0.3-0.8,0.6c-0.4,0.3-0.9,0.5-1.5,0.8c-0.6,0.3-1.3,0.5-2.1,0.6c-0.8,0.2-1.7,0.3-2.6,0.3
			c-1.6,0-3.1-0.3-4.4-0.8c-1.3-0.5-2.4-1.3-3.4-2.4c-0.9-1.1-1.6-2.4-2.1-3.9c-0.5-1.6-0.7-3.4-0.7-5.4c0-2.1,0.3-3.9,0.8-5.6
			c0.5-1.6,1.3-3,2.3-4.2c1-1.1,2.1-2,3.5-2.6c1.4-0.6,2.9-0.9,4.5-0.9c0.7,0,1.4,0.1,2.1,0.2c0.7,0.1,1.3,0.3,1.9,0.5
			c0.6,0.2,1.1,0.4,1.6,0.7c0.5,0.3,0.8,0.5,0.9,0.7c0.2,0.2,0.3,0.3,0.3,0.4c0.1,0.1,0.1,0.2,0.1,0.3s0.1,0.3,0.1,0.4
			c0,0.2,0,0.4,0,0.6c0,0.3,0,0.5,0,0.7c0,0.2-0.1,0.3-0.1,0.5c-0.1,0.1-0.1,0.2-0.2,0.3s-0.2,0.1-0.3,0.1c-0.2,0-0.4-0.1-0.8-0.4
			c-0.3-0.3-0.7-0.5-1.3-0.8c-0.5-0.3-1.1-0.6-1.9-0.8c-0.7-0.3-1.6-0.4-2.6-0.4c-1.1,0-2.1,0.2-3.1,0.7c-0.9,0.4-1.7,1.1-2.4,2
			c-0.7,0.9-1.2,1.9-1.5,3.2c-0.4,1.3-0.5,2.7-0.5,4.3c0,1.6,0.2,3,0.5,4.2c0.3,1.2,0.8,2.2,1.5,3.1c0.6,0.8,1.4,1.4,2.4,1.9
			c0.9,0.4,2,0.6,3.2,0.6c1,0,1.9-0.1,2.6-0.4c0.7-0.2,1.4-0.5,1.9-0.8c0.5-0.3,1-0.6,1.3-0.8c0.3-0.2,0.6-0.4,0.8-0.4
			c0.1,0,0.2,0,0.2,0.1c0.1,0,0.1,0.1,0.2,0.2c0,0.1,0.1,0.3,0.1,0.5C396.5,472.6,396.5,472.8,396.5,473.1z"/>
		<path id="XMLID_478_" class="st0" d="M419.9,476.2c0,0.1,0,0.2-0.1,0.3c-0.1,0.1-0.1,0.1-0.3,0.2c-0.1,0-0.3,0.1-0.5,0.1
			c-0.2,0-0.5,0-0.8,0c-0.3,0-0.6,0-0.8,0c-0.2,0-0.4-0.1-0.5-0.1c-0.1,0-0.2-0.1-0.3-0.2c-0.1-0.1-0.1-0.2-0.1-0.3V465h-11.4v11.2
			c0,0.1,0,0.2-0.1,0.3c-0.1,0.1-0.1,0.1-0.3,0.2c-0.1,0-0.3,0.1-0.5,0.1s-0.5,0-0.8,0c-0.3,0-0.6,0-0.8,0c-0.2,0-0.4-0.1-0.5-0.1
			c-0.1,0-0.2-0.1-0.3-0.2c-0.1-0.1-0.1-0.2-0.1-0.3V452c0-0.1,0-0.2,0.1-0.3c0.1-0.1,0.1-0.1,0.3-0.2c0.1,0,0.3-0.1,0.5-0.1
			c0.2,0,0.5,0,0.8,0c0.3,0,0.6,0,0.8,0s0.4,0.1,0.5,0.1c0.1,0,0.2,0.1,0.3,0.2c0.1,0.1,0.1,0.2,0.1,0.3v10.1h11.4V452
			c0-0.1,0-0.2,0.1-0.3c0.1-0.1,0.1-0.1,0.3-0.2c0.1,0,0.3-0.1,0.5-0.1c0.2,0,0.5,0,0.8,0c0.3,0,0.6,0,0.8,0c0.2,0,0.4,0.1,0.5,0.1
			c0.1,0,0.2,0.1,0.3,0.2c0.1,0.1,0.1,0.2,0.1,0.3V476.2z"/>
		<path id="XMLID_483_" class="st0" d="M430.7,476.2c0,0.1,0,0.2-0.1,0.3c-0.1,0.1-0.1,0.1-0.3,0.2c-0.1,0-0.3,0.1-0.5,0.1
			c-0.2,0-0.5,0-0.8,0c-0.3,0-0.6,0-0.8,0c-0.2,0-0.4-0.1-0.5-0.1c-0.1,0-0.2-0.1-0.3-0.2c-0.1-0.1-0.1-0.2-0.1-0.3V452
			c0-0.1,0-0.2,0.1-0.3c0.1-0.1,0.2-0.1,0.3-0.2c0.1,0,0.3-0.1,0.5-0.1c0.2,0,0.5,0,0.8,0c0.3,0,0.6,0,0.8,0c0.2,0,0.4,0.1,0.5,0.1
			c0.1,0,0.2,0.1,0.3,0.2c0.1,0.1,0.1,0.2,0.1,0.3V476.2z"/>
		<path id="XMLID_485_" class="st0" d="M457.2,475.3c0,0.3,0,0.5-0.1,0.7c-0.1,0.2-0.2,0.3-0.3,0.4c-0.1,0.1-0.3,0.2-0.5,0.3
			c-0.2,0.1-0.3,0.1-0.5,0.1h-1.1c-0.3,0-0.7,0-0.9-0.1c-0.3-0.1-0.5-0.2-0.7-0.4c-0.2-0.2-0.5-0.4-0.7-0.8
			c-0.2-0.3-0.5-0.7-0.7-1.2l-7.7-14.3c-0.4-0.7-0.8-1.5-1.2-2.3c-0.4-0.8-0.8-1.6-1.1-2.4h0c0,0.9,0,1.9,0.1,2.9c0,1,0,1.9,0,2.9
			v15.2c0,0.1,0,0.2-0.1,0.3c-0.1,0.1-0.1,0.1-0.3,0.2c-0.1,0-0.3,0.1-0.5,0.1c-0.2,0-0.5,0-0.8,0c-0.3,0-0.6,0-0.8,0
			s-0.4-0.1-0.5-0.1c-0.1,0-0.2-0.1-0.3-0.2c-0.1-0.1-0.1-0.2-0.1-0.3V453c0-0.5,0.1-0.9,0.4-1.1c0.3-0.2,0.6-0.3,1-0.3h1.6
			c0.4,0,0.7,0,1,0.1c0.3,0.1,0.5,0.2,0.7,0.3c0.2,0.1,0.4,0.4,0.6,0.6c0.2,0.3,0.4,0.6,0.6,1l5.9,11c0.4,0.7,0.7,1.3,1.1,2
			c0.3,0.6,0.7,1.3,1,1.9c0.3,0.6,0.6,1.2,0.9,1.8c0.3,0.6,0.6,1.2,0.9,1.8h0c0-1,0-2.1,0-3.2c0-1.1,0-2.2,0-3.2v-13.6
			c0-0.1,0-0.2,0.1-0.3c0.1-0.1,0.1-0.1,0.3-0.2c0.1-0.1,0.3-0.1,0.5-0.1c0.2,0,0.5,0,0.8,0c0.3,0,0.6,0,0.8,0
			c0.2,0,0.4,0.1,0.5,0.1c0.1,0.1,0.2,0.1,0.3,0.2c0.1,0.1,0.1,0.2,0.1,0.3V475.3z"/>
		<path id="XMLID_487_" class="st0" d="M478.7,475.3c0,0.2,0,0.4,0,0.6c0,0.2-0.1,0.3-0.1,0.4c-0.1,0.1-0.1,0.2-0.2,0.3
			c-0.1,0.1-0.2,0.1-0.3,0.1h-12.1c-0.3,0-0.6-0.1-0.8-0.3c-0.3-0.2-0.4-0.6-0.4-1.1v-22.4c0-0.5,0.1-0.9,0.4-1.1
			c0.3-0.2,0.5-0.3,0.8-0.3h11.9c0.1,0,0.2,0,0.3,0.1c0.1,0.1,0.2,0.1,0.2,0.3c0.1,0.1,0.1,0.3,0.1,0.4c0,0.2,0,0.4,0,0.7
			c0,0.2,0,0.4,0,0.6c0,0.2-0.1,0.3-0.1,0.4c-0.1,0.1-0.1,0.2-0.2,0.2c-0.1,0.1-0.2,0.1-0.3,0.1H468v7.9h8.4c0.1,0,0.2,0,0.3,0.1
			c0.1,0.1,0.2,0.1,0.2,0.2s0.1,0.2,0.1,0.4c0,0.2,0,0.4,0,0.6c0,0.2,0,0.4,0,0.6c0,0.2-0.1,0.3-0.1,0.4c-0.1,0.1-0.1,0.2-0.2,0.2
			c-0.1,0-0.2,0.1-0.3,0.1H468v9h10c0.1,0,0.2,0,0.3,0.1c0.1,0.1,0.2,0.1,0.2,0.2c0.1,0.1,0.1,0.3,0.1,0.4
			C478.7,474.8,478.7,475,478.7,475.3z"/>
	</g>
</g>
<g id="XMLID_38_">
	<path id="XMLID_54_" class="st0" d="M1368.9,260.7c-13.1,0-13.1-19.8,0-19.8C1381.9,240.9,1382,260.7,1368.9,260.7z"/>
	<path id="XMLID_53_" class="st0" d="M1368.9,300c0,13.1-19.8,13.1-19.8,0C1349.1,286.9,1368.9,286.9,1368.9,300z"/>
	<path id="XMLID_52_" class="st0" d="M1292.9,374.1c-13.1,0-13.1-19.8,0-19.8C1306,354.3,1306,374.1,1292.9,374.1z"/>
	<path id="XMLID_51_" class="st0" d="M1360,349.9c3.7,10.6-6.5,20.8-17,17l-31.3,31.3v23.9h28.8c25.3,0,45.8-20.5,45.8-45.8v-52.7
		L1360,349.9z"/>
	<path id="XMLID_50_" class="st0" d="M1160.8,250.3c-2.6-9.9,6.4-19,16.3-16.3l35.3-35.3v-20.9h-24.7c-25.3,0-45.8,20.5-45.8,45.8
		v45.6L1160.8,250.3z"/>
	<path id="XMLID_46_" class="st0" d="M1340.3,177.8h-13.4v84l-62.9,62.9c3.3,8.8-3.3,18-12.5,18c-7.4,0-13.4-6-13.4-13.4
		c0-9.1,9-15.7,17.7-12.7l59.7-59.7v-79.2h-36.3v50.6l-104.9,104.9c3.3,8.8-3.2,18.1-12.5,18.1c-7.4,0-13.4-6-13.4-13.4
		c0-9.1,8.9-15.6,17.6-12.7l101.7-101.7v-45.8h-43.9v25.6l-37.9,37.9c5.1,11.2-6.5,22.7-17.7,17.7l-26.4,26.4v90.9
		c0,25.3,20.5,45.8,45.8,45.8h11.3v-89.7l61.9-61.9c-3.1-8.8,3.4-17.9,12.6-17.9c7.4,0,13.4,6,13.4,13.4c0,9.2-9.1,15.7-17.9,12.6
		l-58.5,58.5v85h41v-62l104.8-104.8c-3.1-8.8,3.4-17.9,12.6-17.9c7.4,0,13.4,6,13.4,13.4c0,9.1-9.1,15.7-17.9,12.6l-101.5,101.5
		v57.3h37.2v-28.6l34.7-34.7c-3.9-10.6,6.5-21,17.1-17.1l34.3-34.3v-83.8C1386.2,198.4,1365.6,177.8,1340.3,177.8z M1168.9,280.1
		l48.7-48.7c-2.6-8.6,3.9-17.2,12.8-17.2c7.4,0,13.4,6,13.4,13.4c0,9.5-9.7,16-18.5,12.4l-48.6,48.6c2.6,8.6-3.9,17.3-12.8,17.3
		c-7.4,0-13.4-6-13.4-13.4C1150.4,283,1160.1,276.5,1168.9,280.1z M1354,312.4l-48.2,48.2c2.4,8.6-4.1,17-12.9,17
		c-7.4,0-13.4-6-13.4-13.4c0-9.6,9.9-16.1,18.7-12.3l48-48c-2.7-8.6,3.8-17.4,12.8-17.4c7.4,0,13.4,6,13.4,13.4
		C1372.4,309.4,1362.8,316,1354,312.4z"/>
	<path id="XMLID_45_" class="st0" d="M1173.7,256.8c-13.1,0-13.1-19.8,0-19.8C1186.8,237,1186.8,256.8,1173.7,256.8z"/>
	<path id="XMLID_44_" class="st0" d="M1173.7,292.5c0,13.1-19.8,13.1-19.8,0C1153.9,279.4,1173.7,279.4,1173.7,292.5z"/>
	<path id="XMLID_43_" class="st0" d="M1171.7,338.1c0,13.1-19.8,13.1-19.8,0C1151.9,325,1171.7,325,1171.7,338.1z"/>
	<path id="XMLID_42_" class="st0" d="M1230.4,237.5c-13.1,0-13.1-19.8,0-19.8C1243.5,217.7,1243.5,237.5,1230.4,237.5z"/>
	<path id="XMLID_41_" class="st0" d="M1283.3,266.1c0,13.1-19.8,13.1-19.8,0C1263.5,253,1283.3,253,1283.3,266.1z"/>
	<path id="XMLID_40_" class="st0" d="M1251.4,339.3c-5.5,0-9.9-4.4-9.9-9.9c0-5.5,4.4-9.9,9.9-9.9
		C1264.5,319.5,1264.5,339.3,1251.4,339.3z"/>
	<path id="XMLID_39_" class="st0" d="M1347.4,364.2c-13.1,0-13.1-19.8,0-19.8C1360.4,344.4,1360.4,364.2,1347.4,364.2z"/>
</g>
</svg>
